<svg xmlns="http://www.w3.org/2000/svg" width="48" height="48" viewBox="0 0 48 48">
    <path fill="#020D1C" fill-rule="evenodd" d="M34.053 3.895l-1.345 2.69-8.573-3.558a.35.35 0 0 0-.27 0L9.277 9.081a.35.35 0 0 0-.189.188L3.027 23.843a.34.34 0 0 0-.002.262l6.066 14.662a.346.346 0 0 0 .19.188l14.54 6.018a.344.344 0 0 0 .269 0l14.631-6.021a.348.348 0 0 0 .19-.189l6.064-14.658a.34.34 0 0 0-.002-.262L43.791 21h3.25l.703 1.69c.34.821.342 1.742.003 2.563L41.682 39.91a3.342 3.342 0 0 1-1.82 1.816l-14.63 6.022a3.349 3.349 0 0 1-2.558-.003L8.133 41.727a3.348 3.348 0 0 1-1.814-1.813L.253 25.252a3.347 3.347 0 0 1 .003-2.561L6.32 8.117A3.343 3.343 0 0 1 8.127 6.31L22.714.258a3.35 3.35 0 0 1 2.572 0l8.767 3.638zM31.75 21h3.75v13h-3.446c-.995 0-1.95-.398-2.653-1.106l-5.15-5.814-5.152 5.814A3.736 3.736 0 0 1 16.446 34H13V14.5h3.75v15.726l7.5-8.179 7.5 8.179V21zM38.25.5L48 19H28.5L38.25.5zM37.5 8v5H39V8h-1.5zm0 6.5V16H39v-1.5h-1.5z"/>
</svg>
