<svg version="1.1" viewBox="0 0 32 16" xmlns="http://www.w3.org/2000/svg">
<g transform="translate(-162 -198)" fill-rule="evenodd">
<path class="plane" d="m191 208c0 1.1046-0.89543 2-2 2s-2-0.89543-2-2h-3c0 3.3137-2.6863 6-6 6s-6-2.6863-6-6h-3c0 1.1046-0.89543 2-2 2s-2-0.89543-2-2h-3v-2h10.341c0.71625-2.0265 2.4902-3.5533 4.6586-3.917v-4.083h2v4.083c2.1684 0.36378 3.9423 1.8906 4.6586 3.917h10.341v2h-3zm-13 4c2.2091 0 4-1.7909 4-4s-1.7909-4-4-4-4 1.7909-4 4 1.7909 4 4 4zm-2-6h4c0 1.1046-0.89543 2-2 2s-2-0.89543-2-2z">
</path>
</g>
</svg>
