<?xml version="1.0" encoding="UTF-8"?>
<svg width="16px" height="16px" viewBox="0 0 16 16" version="1.1" xmlns="http://www.w3.org/2000/svg" xmlns:xlink="http://www.w3.org/1999/xlink">
    <!-- Generator: sketchtool 48.1 (47250) - http://www.bohemiancoding.com/sketch -->
    <title>E22EC1C3-7316-4485-9E62-10103688D755</title>
    <desc>Created with sketchtool.</desc>
    <defs></defs>
    <g id="Preferences---Pro" stroke="none" stroke-width="1"  fill-rule="evenodd" transform="translate(-218.000000, -430.000000)">
        <path d="M232,432.894223 C230.628094,431.758115 228.64186,431.691973 227.192075,432.768153 L226,433.653034 L224.807925,432.768153 C223.35814,431.691973 221.371906,431.758115 220,432.894223 L220,442.610087 C222.005837,442.069837 224.188237,442.357881 226.005798,443.474219 C227.822776,442.368572 229.998495,442.084212 232,442.621142 L232,432.894223 Z M234,443.477751 L234,445.164618 L233.340458,445.440197 C232.921251,445.135657 232.469911,444.895385 232,444.71938 L232,442.621142 C232.695122,442.807617 233.36923,443.093153 234,443.477751 Z M218,432.026505 L218.403417,431.639882 C220.480311,429.64945 223.690147,429.447628 226,431.16224 C228.309853,429.447628 231.519689,429.64945 233.596583,431.639882 L234,432.026505 L234,446.000285 C231.78292,443.810402 228.21708,443.810402 226,446.000285 C223.78955,443.794313 220.21045,443.794313 218,446.000285 L218,432.026505 Z M225,432.008387 L227,432.008387 L227,444.008387 L225,444.008387 L225,432.008387 Z" id="Combined-Shape-Copy-2" fill="#020D1C" fill-rule="nonzero"></path>
    </g>
</svg>