<?xml version="1.0" encoding="UTF-8"?>
<svg width="16px" height="16px" viewBox="0 0 16 16" version="1.1" xmlns="http://www.w3.org/2000/svg" xmlns:xlink="http://www.w3.org/1999/xlink">
    <!-- Generator: Sketch 48.1 (47250) - http://www.bohemiancoding.com/sketch -->
    <title>collapse</title>
    <desc>Created with Sketch.</desc>
    <defs></defs>
    <g id="ws-ext-ui-flow-6" stroke="none" stroke-width="1" fill="none" fill-rule="evenodd" transform="translate(-1257.000000, -138.000000)">
        <g id="Group-4" transform="translate(1257.000000, 138.000000)" fill="#000000" fill-rule="nonzero">
            <path d="M5,5 L5,1 C5,0.44771525 5.44771525,1.01453063e-16 6,0 C6.55228475,-1.01453063e-16 7,0.44771525 7,1 L7,7 L1,7 C0.44771525,7 6.76353751e-17,6.55228475 0,6 C-6.76353751e-17,5.44771525 0.44771525,5 1,5 L5,5 Z M11,11 L11,15 C11,15.5522847 10.5522847,16 10,16 C9.44771525,16 9,15.5522847 9,15 L9,9 L15,9 C15.5522847,9 16,9.44771525 16,10 C16,10.5522847 15.5522847,11 15,11 L11,11 Z" id="collapse"></path>
        </g>
    </g>
</svg>