<svg xmlns="http://www.w3.org/2000/svg" width="72" height="72" viewBox="0 0 72 72">
  <path fill="#A0FEDA" fill-rule="evenodd" d="M104.054617,38 L107.05961,38 C108.093467,55.2941201 122.446144,69 140,69 C157.553856,69 171.906533,55.2941201 172.94039,38 L175.945383,38 C174.90762,56.9519781 159.211137,72 140,72 C120.788863,72 105.09238,56.9519781 104.054617,38 Z M104.054617,34 C105.09238,15.0480219 120.788863,0 140,0 C159.211137,0 174.90762,15.0480219 175.945383,34 L172.94039,34 C171.906533,16.7058799 157.553856,3 140,3 C122.446144,3 108.093467,16.7058799 107.05961,34 L104.054617,34 Z" transform="translate(-104)"/>
</svg>
