<svg width="24" height="24" xmlns="http://www.w3.org/2000/svg"><defs><path id="a" d="M.9 0h24v24H.9z"/></defs><g fill-rule="evenodd"><path d="M17.6 16.1a1.5 1.5 0 1 1 0-3 1.5 1.5 0 0 1 0 3m-3.8-9a1.5 1.5 0 1 1 3 0 1.5 1.5 0 0 1-3 0m-2.2 11.3a.7.7 0 1 1 0-1.5.7.7 0 0 1 0 1.5m0-7.4a.8.8 0 1 1 0 1.5.8.8 0 0 1 0-1.5m-5.5 5.1a1.5 1.5 0 1 1 0-3 1.5 1.5 0 0 1 0 3M9.5.2a3 3 0 0 1-1.3 4 3 3 0 0 1-4 4 3 3 0 0 1-4 1.2C0 10.2 0 11 0 12c0 6.6 5.2 12 11.9 12C18.5 24 24 18.6 24 12A12.1 12.1 0 0 0 9.5.2z"/></g></svg>