<svg xmlns="http://www.w3.org/2000/svg" width="72" height="72" viewBox="0 0 72 72">
    <g fill="none" fill-rule="evenodd">
        <path fill="#FFF" d="M37.5 40.5V20h-3v20.5L27 33l-2 2 11 11 11-11-2-2-7.5 7.5zM36 6c16.569 0 30 13.431 30 30 0 16.569-13.431 30-30 30C19.431 66 6 52.569 6 36 6 19.431 19.431 6 36 6zM25 48v3h22v-3H25z"/>
        <path fill="#FFEF02" fill-rule="nonzero" d="M9.483 60.394C3.892 54.32.36 46.319 0 37.501h3.005a32.9 32.9 0 0 0 8.603 20.768l-2.125 2.125zm2.123 2.123l2.125-2.125A32.9 32.9 0 0 0 34.5 68.995V72c-8.818-.361-16.819-3.892-22.893-9.483zm50.911-50.911C68.108 17.68 71.64 25.681 72 34.499h-3.005a32.9 32.9 0 0 0-8.603-20.768l2.125-2.125zm-2.123-2.123l-2.125 2.125A32.9 32.9 0 0 0 37.5 3.005V0C46.32.361 54.32 3.892 60.394 9.483zM9.483 11.606l2.125 2.125A32.9 32.9 0 0 0 3.005 34.5H0C.361 25.68 3.892 17.68 9.483 11.606zm2.123-2.123C17.68 3.892 25.681.36 34.499 0v3.005a32.9 32.9 0 0 0-20.768 8.603l-2.125-2.125zm50.911 50.911l-2.125-2.125A32.9 32.9 0 0 0 68.995 37.5H72c-.361 8.818-3.892 16.819-9.483 22.893zm-2.123 2.123C54.32 68.108 46.319 71.64 37.501 72v-3.005a32.9 32.9 0 0 0 20.768-8.603l2.125 2.125z"/>
    </g>
</svg>
