<svg xmlns="http://www.w3.org/2000/svg" width="110" height="16" viewBox="0 0 110 16">
    <defs>
        <path id="a" d="M.182.331h10.839v15.423H.182z"/>
    </defs>
    <g fill="none" fill-rule="evenodd">
        <path fill="#020D1C" d="M11.828 13.591L7.097 8.373 2.366 13.59V3.556H0V16h2.174c.628 0 1.23-.254 1.673-.705l3.25-3.71 3.25 3.71a2.344 2.344 0 0 0 1.672.705h2.175V3.556h-2.366V13.59zM16.855 16h2.661V3.556h-2.661zM16.855 2.667h2.661V0h-2.661zM79.839 16H82.5V3.556h-2.661zM79.839 2.667H82.5V0h-2.661zM27.5 3.556a5.37 5.37 0 0 0-2.866.825v-.825h-2.457V16h2.457V8.774c0-1.552 1.283-2.81 2.866-2.81 1.583 0 2.866 1.258 2.866 2.81V16h2.457V8.774c0-2.882-2.383-5.218-5.323-5.218M59.188 9.778a3.818 3.818 0 0 1 6.405-2.805l1.764-1.651a6.219 6.219 0 0 0-4.347-1.766c-3.444 0-6.236 2.786-6.236 6.222 0 3.436 2.792 6.222 6.236 6.222 1.722 0 3.28-.696 4.41-1.823l-1.707-1.702a3.815 3.815 0 0 1-2.703 1.116 3.818 3.818 0 0 1-3.822-3.813zM71.542 4.381v-.825h-2.348V16h2.348V8.774c0-1.552 1.226-2.81 2.739-2.81.856 0 1.62.404 2.122 1.035l1.662-1.705c-.932-1.064-2.28-1.738-3.784-1.738-1.01 0-1.948.305-2.74.825zM105.586 6.478l-5.043 5.173c-.871-1.46-.723-3.346.483-4.583 1.207-1.237 3.084-1.43 4.56-.59zm2.006 3.318c.027.976-.31 1.95-1.033 2.691-1.104 1.133-2.77 1.39-4.178.782l3.395-3.482 1.466-1.504 1.563-1.603.162-.166a6.514 6.514 0 0 0-.906-1.114c-2.493-2.442-6.424-2.462-8.782-.043-2.357 2.418-2.247 6.357.245 8.8 2.493 2.44 6.425 2.46 8.782.042 1.18-1.21 1.738-2.799 1.691-4.39l-2.405-.013zM51.3 5.855l.032-.006c1.372-.279 2.882 1.124 2.882 1.124l1.673-1.65c-1.065-1.092-2.518-1.767-4.123-1.767-1.003 0-2.017.28-2.77.829-.046.032-.091.067-.136.102l-.042.034a3.55 3.55 0 0 0-.565.55c-1.266 1.573-.715 3.747 1.229 4.856l.185.106 1.483.846.74.423.186.105c.717.409.92 1.21.453 1.789-.06.075-.132.151-.211.226-1.436 1.142-3.626-.839-3.626-.839l-1.674 1.65C48.082 15.326 49.535 16 51.14 16c1.447 0 2.786-.512 3.529-1.443.027-.031.056-.06.083-.092 1.265-1.572.715-3.746-1.23-4.856l-.185-.105-.741-.423-1.483-.846-.185-.106c-.716-.409-.919-1.21-.453-1.789a1.72 1.72 0 0 1 .162-.176c.212-.16.436-.258.664-.309zM42.58 3.556V0h2.662v16h-4.436c-3.43 0-6.21-2.786-6.21-6.222 0-3.437 2.78-6.222 6.21-6.222h1.775zm0 2.666h-1.774a3.552 3.552 0 0 0-3.548 3.556 3.552 3.552 0 0 0 3.548 3.555h1.775v-7.11zM87.823 3.556V0H85.16v16h4.436c3.43 0 6.21-2.786 6.21-6.222 0-3.437-2.78-6.222-6.21-6.222h-1.774zm0 2.666h1.774a3.552 3.552 0 0 1 3.548 3.556 3.552 3.552 0 0 1-3.548 3.555h-1.774v-7.11z"/>
    </g>
</svg>
