<svg xmlns="http://www.w3.org/2000/svg" width="72" height="72" viewBox="0 0 72 72">
    <path  fill-rule="evenodd" d="M34.5 18.062V13.5a1.5 1.5 0 0 1 3 0v22a1.5 1.5 0 0 1-3 0V21.074C26.92 21.827 21 28.222 21 36c0 8.284 6.716 15 15 15 8.284 0 15-6.716 15-15 0-6.716-4.414-12.402-10.5-14.313v-3.12C48.264 20.565 54 27.613 54 36c0 9.941-8.059 18-18 18s-18-8.059-18-18c0-9.436 7.26-17.176 16.5-17.938zM36 72C16.118 72 0 55.882 0 36S16.118 0 36 0s36 16.118 36 36-16.118 36-36 36zm0-3c18.225 0 33-14.775 33-33S54.225 3 36 3 3 17.775 3 36s14.775 33 33 33z"/>
</svg>
