<?xml version="1.0" encoding="UTF-8"?>
<svg width="16px" height="16px" viewBox="0 0 16 16" version="1.1" xmlns="http://www.w3.org/2000/svg" xmlns:xlink="http://www.w3.org/1999/xlink">
    <!-- Generator: sketchtool 63.1 (101010) - https://sketch.com -->
    <title>538425A8-DDD4-49AB-91DC-F277E88730AD</title>
    <desc>Created with sketchtool.</desc>
    <g id="Designs" stroke="none" stroke-width="1" >
        <g id="SIGNUP" transform="translate(-387.000000, -288.000000)" >
            <g id="Group" transform="translate(126.000000, 141.000000)">
                <path d="M268,147.061894 L268,149.082958 C265.162287,149.559037 263,152.027004 263,155 C263,158.313708 265.686292,161 269,161 C271.972996,161 274.440963,158.837713 274.917042,156 L276.938106,156 C276.446008,159.946312 273.079618,163 269,163 C264.581722,163 261,159.418278 261,155 C261,150.920382 264.053688,147.553992 268,147.061894 Z M277,147 L277,154 L275,154 L275,150.414214 L269,156.414214 L267.585786,155 L273.585786,149 L270,149 L270,147 L277,147 Z" id="external-link-icon-copy-4"></path>
            </g>
        </g>
    </g>
</svg>