<svg width="24px" height="24px" viewBox="0 0 24 24" version="1.1" xmlns="http://www.w3.org/2000/svg" xmlns:xlink="http://www.w3.org/1999/xlink">
    <g id="Page-1" stroke="none" stroke-width="1" fill="none" fill-rule="evenodd">
        <g id="ws-ext-allowlist-fix-fix" transform="translate(-285.000000, -193.000000)" fill="#FFFFFF">
            <g id="Group-6" transform="translate(285.000000, 193.000000)">
                <path d="M2.83208737,16 L7.25668287,16 C7.12883472,15.0485482 7.04709759,14.0426902 7.01519603,13 L2.04937524,13 C2.15432972,14.057092 2.42389958,15.0657578 2.83208737,16 Z M3.99926851,18.0000012 C5.20454979,19.6046266 6.88131114,20.8348743 8.82387824,21.48507 C8.32297912,20.5330115 7.91400179,19.3488849 7.61121167,18 L3.99926715,18 Z M21.1679126,16 C21.5761004,15.0657578 21.8456703,14.057092 21.9506248,13 L16.984804,13 C16.9529024,14.0426902 16.8711653,15.0485482 16.7433171,16 L21.1679126,16 Z M20.0007328,18 L16.3887883,18 C16.0859982,19.3488849 15.6770209,20.5330115 15.1761218,21.48507 C17.1186889,20.8348743 18.7954502,19.6046266 20.0007315,18.0000012 Z M9.28869668,16 L14.7113033,16 C14.8501612,15.0667451 14.9451896,14.0583399 14.9824355,13 L9.01756447,13 C9.05481042,14.0583399 9.14983882,15.0667451 9.28869668,16 Z M9.67842563,18 C10.2774475,20.4331816 11.1805051,22 12,22 C12.8194949,22 13.7225525,20.4331816 14.3215744,18 L9.67842563,18 Z M2.83208737,8 C2.42389958,8.93424223 2.15432972,9.94290804 2.04937524,11 L7.01519603,11 C7.04709759,9.95730977 7.12883472,8.95145183 7.25668287,8 L2.83208737,8 Z M3.99926715,6 L7.61121167,6 C7.91400179,4.65111507 8.32297912,3.46698849 8.82387824,2.51492996 C6.88131114,3.16512572 5.20454979,4.39537344 3.99926851,5.99999882 Z M21.1679126,8 L16.7433171,8 C16.8711653,8.95145183 16.9529024,9.95730977 16.984804,11 L21.9506248,11 C21.8456703,9.94290804 21.5761004,8.93424223 21.1679126,8 Z M20.0007315,5.99999882 C18.7954502,4.39537344 17.1186889,3.16512572 15.1761218,2.51492996 C15.6770209,3.46698849 16.0859982,4.65111507 16.3887883,6 L20.0007328,6 Z M9.28869668,8 C9.14983882,8.93325495 9.05481042,9.94166007 9.01756447,11 L14.9824355,11 C14.9451896,9.94166007 14.8501612,8.93325495 14.7113033,8 L9.28869668,8 Z M9.67842563,6 L14.3215744,6 C13.7225525,3.56681838 12.8194949,2 12,2 C11.1805051,2 10.2774475,3.56681838 9.67842563,6 Z M12,24 C5.372583,24 0,18.627417 0,12 C0,5.372583 5.372583,0 12,0 C18.627417,0 24,5.372583 24,12 C24,18.627417 18.627417,24 12,24 Z" id="globe"></path>
            </g>
        </g>
    </g>
</svg>