<?xml version="1.0" encoding="UTF-8"?>
<svg width="16px" height="16px" viewBox="0 0 16 16" version="1.1" xmlns="http://www.w3.org/2000/svg" xmlns:xlink="http://www.w3.org/1999/xlink">
    <!-- Generator: sketchtool 63.1 (101010) - https://sketch.com -->
    <title>CA1A7845-1112-49A3-B887-97BCAD68142E</title>
    <desc>Created with sketchtool.</desc>
    <g id="Designs" stroke="none" stroke-width="1" fill="none" fill-rule="evenodd">
        <g id="LOGIN-FULL" transform="translate(-406.000000, -337.000000)"  fill-rule="nonzero">
            <g id="hidepassword" transform="translate(406.000000, 337.000000)">
                <g>
                    <path d="M8,3 C10.9455187,3 13.6121853,4.66666667 16,8 C13.6121853,11.3333333 10.9455187,13 8,13 C5.05448133,13 2.38781467,11.3333333 0,8 C2.38781467,4.66666667 5.05448133,3 8,3 Z M8,4 C5.58085329,4 3.33839016,5.3033071 1.24676945,8 C3.33839016,10.6966929 5.58085329,12 8,12 C10.3327486,12 12.5012085,10.7881239 14.5285499,8.28360365 L14.7532305,8 L14.5285499,7.71639635 C12.5012085,5.21187612 10.3327486,4 8,4 Z M8,5 C9.65685425,5 11,6.34314575 11,8 C11,9.65685425 9.65685425,11 8,11 C6.34314575,11 5,9.65685425 5,8 C5,6.34314575 6.34314575,5 8,5 Z M8,6 C6.8954305,6 6,6.8954305 6,8 C6,9.1045695 6.8954305,10 8,10 C9.1045695,10 10,9.1045695 10,8 C10,6.8954305 9.1045695,6 8,6 Z" id="Combined-Shape"></path>
                    <polygon id="Path-2" points="3.38411064 14.3200922 13.3841106 2.3200922 12.6158894 1.6799078 2.61588936 13.6799078"></polygon>
                </g>
            </g>
        </g>
    </g>
</svg>