<svg xmlns="http://www.w3.org/2000/svg" width="16" height="16" viewBox="0 0 16 16">
    <path fill="#1A2432" fill-rule="evenodd" d="M8 10a2 2 0 1 0 0-4 2 2 0 0 0 0 4zM5.968 4.554A3.981 3.981 0 0 1 8 4c.742 0 1.436.202 2.032.554L11.586 3A1 1 0 0 1 13 4.414l-1.554 1.554C11.798 6.564 12 7.258 12 8s-.202 1.436-.554 2.032L13 11.586A1 1 0 0 1 11.586 13l-1.554-1.554A3.981 3.981 0 0 1 8 12a3.981 3.981 0 0 1-2.032-.554L4.414 13A1 1 0 1 1 3 11.586l1.554-1.554A3.981 3.981 0 0 1 4 8c0-.742.202-1.436.554-2.032L3 4.414A1 1 0 0 1 4.414 3l1.554 1.554zM8 3a1 1 0 0 1-1-1V1a1 1 0 1 1 2 0v1a1 1 0 0 1-1 1zM3 8a1 1 0 0 1-1 1H1a1 1 0 1 1 0-2h1a1 1 0 0 1 1 1zm5 5a1 1 0 0 1 1 1v1a1 1 0 0 1-2 0v-1a1 1 0 0 1 1-1zm5-5a1 1 0 0 1 1-1h1a1 1 0 0 1 0 2h-1a1 1 0 0 1-1-1z"/>
</svg>
