<?xml version="1.0" encoding="UTF-8"?>
<svg width="24px" height="24px" viewBox="0 0 24 24" version="1.1" xmlns="http://www.w3.org/2000/svg" xmlns:xlink="http://www.w3.org/1999/xlink">
    <!-- Generator: sketchtool 48.1 (47250) - http://www.bohemiancoding.com/sketch -->
    <title>63B16ABA-3AE6-4BA1-B62A-7C6869715D20</title>
    <desc>Created with sketchtool.</desc>
    <defs></defs>
    <g id="Tooltip---Manual-Mode" stroke="none" stroke-width="1" transform="translate(-424.000000, -102.000000)" opacity="1">
        <g id="Header-Copy-9" transform="translate(162.000000, 86.000000)" fill-rule="nonzero">
            <path d="M280.798845,30.5984005 L280,29.998365 L280,25.3851648 C280,22.9505199 278.51773,20.7611578 276.257219,19.8569534 L275.551206,19.5745484 L275.105573,18.6832816 C274.896193,18.2645215 274.468188,18 274,18 C273.531812,18 273.103807,18.2645215 272.894427,18.6832816 L272.448794,19.5745484 L271.742781,19.8569534 C269.48227,20.7611578 268,22.9505199 268,25.3851648 L268,29.998365 L267.201155,30.5984005 C265.73725,31.6979823 264.702594,33.2486725 264.252177,35 L271.441518,35 L271.948683,36.5214946 C272.243,37.4044437 273.06929,38 274,38 C274.992159,38 275.884023,37.395001 276.250834,36.4731388 L276.836999,35 L283.747823,35 C283.297406,33.2486725 282.26275,31.6979823 280.798845,30.5984005 Z M286,37 L278.193706,37 L278.109129,37.2125579 C277.439478,38.8955121 275.811289,40 274,40 C272.208429,40 270.617861,38.8535835 270.051317,37.1539501 L270,37 L262,37 C262,33.7283643 263.571107,30.8236803 266,28.9992676 L266,25.3851648 C266,22.1327108 267.980172,19.2079311 271,18 L271.105573,17.7888544 C271.653737,16.6925262 272.774268,16 274,16 C275.225732,16 276.346263,16.6925262 276.894427,17.7888544 L277,18 C280.019828,19.2079311 282,22.1327108 282,25.3851648 L282,28.9992676 C284.428893,30.8236803 286,33.7283643 286,37 Z" id="newsfeed-icon"></path>
        </g>
    </g>
</svg>
