<svg xmlns="http://www.w3.org/2000/svg" width="24" height="24" viewBox="0 0 24 24">
    <path  fill-rule="nonzero" d="M18.799 14.598l-.799-.6V9.385a5.954 5.954 0 0 0-3.743-5.528l-.706-.282-.445-.892a1.236 1.236 0 0 0-2.212 0l-.445.892-.706.282A5.954 5.954 0 0 0 6 9.385v4.613l-.799.6A7.992 7.992 0 0 0 2.252 19h7.19l.507 1.521A2.162 2.162 0 0 0 12 22c.992 0 1.884-.605 2.25-1.527L14.838 19h6.91a7.992 7.992 0 0 0-2.948-4.402zM24 21h-7.806l-.085.213A4.422 4.422 0 0 1 12 24a4.162 4.162 0 0 1-3.949-2.846L8 21H0a9.985 9.985 0 0 1 4-8V9.384A7.954 7.954 0 0 1 9 2l.106-.211a3.236 3.236 0 0 1 5.788 0L15 2a7.954 7.954 0 0 1 5 7.385V13A9.985 9.985 0 0 1 24 21z" opacity="1"/>
</svg>
