<?xml version="1.0" encoding="UTF-8"?>
<svg width="16px" height="16px" viewBox="0 0 16 16" version="1.1" xmlns="http://www.w3.org/2000/svg" xmlns:xlink="http://www.w3.org/1999/xlink">
    <!-- Generator: Sketch 51.3 (57544) - http://www.bohemiancoding.com/sketch -->
    <title>newsfeed-icon</title>
    <desc>Created with Sketch.</desc>
    <defs></defs>
    <g id="Page-1" stroke="none" stroke-width="1">
        <path d="M11.8905996,9.66410059 L11,9.07036752 L11,5 L11,5 C11,3.34314575 9.65685425,2 8,2 L8,2 C6.34314575,2 5,3.34314575 5,5 L5,9.07036752 L4.10940039,9.66410059 C3.25349778,10.2347023 2.61958676,11.058603 2.28034662,12 L6.23606798,12 L6.89442719,13.3167184 C7.10380724,13.7354785 7.53181199,14 8,14 C8.46818801,14 8.89619276,13.7354785 9.10557281,13.3167184 L9.76393202,12 L13.7196534,12 C13.3804132,11.058603 12.7465022,10.2347023 11.8905996,9.66410059 Z M16,14 L11,14 L10.8944272,14.2111456 C10.3462631,15.3074738 9.22573213,16 8,16 C6.77426787,16 5.65373688,15.3074738 5.10557281,14.2111456 L5,14 L-1.8189894e-12,14 L-1.8189894e-12,13.6055513 C-1.8189894e-12,11.3530024 1.12576606,9.24948929 3,8 L3,5.16227766 C3,5.10818511 3,5.05409255 3,5 L3,5 C3,2.23857625 5.23857625,-1.29166784e-13 8,-1.29674049e-13 L8,-1.29674049e-13 C10.7614237,-4.17139841e-13 13,2.23857625 13,5 C13,5.05409255 13,5.10818511 13,5.16227766 L13,8 C14.8742339,9.24948929 16,11.3530024 16,13.6055513 L16,14 Z" id="newsfeed-icon"  fill-rule="nonzero"></path>
    </g>
</svg>