<?xml version="1.0" encoding="UTF-8"?>
<svg width="72px" height="72px" viewBox="0 0 72 72" version="1.1" xmlns="http://www.w3.org/2000/svg" xmlns:xlink="http://www.w3.org/1999/xlink">
    <!-- Generator: sketchtool 63.1 (101010) - https://sketch.com -->
    <title>3F633B3C-10A0-49E7-926A-DC1B5B32CF20</title>
    <desc>Created with sketchtool.</desc>
    <g id="Designs" stroke="none" stroke-width="1" fill="none" fill-rule="evenodd">
        <g id="HS-ON-CONNECTIONISSUE-LIGHT" transform="translate(-362.000000, -244.000000)" fill="#55FF8A">
            <g id="onproxyfailure_ring" transform="translate(362.000000, 244.000000)">
                <path d="M36,0 C42.7379662,0 49.0435838,1.85110451 54.4360455,5.07250634 C54.1522188,5.99885633 54,6.98165186 54,8 C54,8.11482081 54.0019352,8.22918965 54.0057746,8.34307566 C48.8288765,4.96328618 42.6437133,3 36,3 C17.7746033,3 3,17.7746033 3,36 C3,54.2253967 17.7746033,69 36,69 C54.2253967,69 69,54.2253967 69,36 C69,29.3562867 67.0367138,23.1711235 63.6586637,17.9930325 C63.7708104,17.9980648 63.8851792,18 64,18 C65.0183481,18 66.0011437,17.8477812 66.9268747,17.5648554 C70.1488955,22.9564162 72,29.2620338 72,36 C72,55.882251 55.882251,72 36,72 C16.117749,72 4.26325641e-14,55.882251 4.26325641e-14,36 C4.26325641e-14,16.117749 16.117749,0 36,0 Z" id="Combined-Shape"></path>
                <path d="M64,0 C68.418278,0 72,3.581722 72,8 C72,12.418278 68.418278,16 64,16 C59.581722,16 56,12.418278 56,8 C56,3.581722 59.581722,0 64,0 Z M65,11 L63,11 L63,13 L65,13 L65,11 Z M65,3 L63,3 L63,10 L65,10 L65,3 Z" id="Combined-Shape"></path>
            </g>
        </g>
    </g>
</svg>