<?xml version="1.0" encoding="UTF-8"?>
<svg width="24px" height="24px" viewBox="0 0 24 24" version="1.1" xmlns="http://www.w3.org/2000/svg" xmlns:xlink="http://www.w3.org/1999/xlink">
    <!-- Generator: sketchtool 48.1 (47250) - http://www.bohemiancoding.com/sketch -->
    <title>900F200A-1F9E-4910-ACE2-2BF941A9406C</title>
    <desc>Created with sketchtool.</desc>
    <defs></defs>
    <g id="Tooltip---Manual-Mode" stroke="none" stroke-width="1" fill="none" fill-rule="evenodd" transform="translate(-162.000000, -102.000000)" opacity="1">
        <g id="Header-Copy-9" transform="translate(162.000000, 86.000000)" fill="#020D1C" fill-rule="nonzero">
            <path d="M15,16 C15,18.066 16.675,19.74 18.74,19.74 C19.436,19.74 20.118,19.546 20.709,19.18 L21,19 L24,24 C21.791,25.368 21.109,28.267 22.476,30.476 C22.859,31.095 23.381,31.617 24,32 L21,37 L20.709,36.82 C20.096,36.44 19.416,36.259 18.744,36.259 C17.491,36.259 16.268,36.888 15.56,38.031 C15.194,38.623 15,39.304 15,40 L9,40 C9,37.934 7.325,36.26 5.26,36.26 C4.564,36.26 3.883,36.454 3.291,36.82 L3,37 L0,32 C2.209,30.632 2.891,27.733 1.524,25.524 C1.141,24.905 0.619,24.383 0,24 L3,19 L3.291,19.18 C3.904,19.56 4.584,19.741 5.256,19.741 C6.509,19.741 7.732,19.112 8.44,17.969 C8.806,17.377 9,16.696 9,16 L15,16 Z M13.359,18 L10.64,18 C10.509,18.354 10.341,18.697 10.14,19.022 C9.086,20.724 7.26,21.741 5.256,21.741 C4.763,21.741 4.274,21.677 3.801,21.552 L2.576,23.594 C2.816,23.868 3.033,24.162 3.224,24.471 C4.167,25.994 4.46,27.792 4.05,29.536 C3.796,30.617 3.289,31.597 2.578,32.41 L3.801,34.448 C4.275,34.324 4.765,34.26 5.26,34.26 C7.722,34.26 9.827,35.818 10.641,38 L13.36,38 C13.491,37.646 13.658,37.303 13.86,36.979 C14.914,35.276 16.74,34.259 18.744,34.259 C19.237,34.259 19.726,34.323 20.199,34.448 L21.424,32.406 C21.184,32.132 20.967,31.838 20.776,31.529 C19.192,28.97 19.543,25.751 21.423,23.593 L20.199,21.552 C19.725,21.676 19.235,21.74 18.74,21.74 C16.278,21.74 14.173,20.182 13.359,18 Z M12,32 C9.790861,32 8,30.209139 8,28 C8,25.790861 9.790861,24 12,24 C14.209139,24 16,25.790861 16,28 C16,30.209139 14.209139,32 12,32 Z M12,30 C13.1045695,30 14,29.1045695 14,28 C14,26.8954305 13.1045695,26 12,26 C10.8954305,26 10,26.8954305 10,28 C10,29.1045695 10.8954305,30 12,30 Z" id="settings-icon"></path>
        </g>
    </g>
</svg>
