<?xml version="1.0" encoding="UTF-8"?>
<svg width="24px" height="24px" viewBox="0 0 24 24" version="1.1" xmlns="http://www.w3.org/2000/svg" xmlns:xlink="http://www.w3.org/1999/xlink">
    <!-- Generator: Sketch 51.3 (57544) - http://www.bohemiancoding.com/sketch -->
    <title>whitelist_icon</title>
    <desc>Created with Sketch.</desc>
    <defs></defs>
    <g id="Page-1" stroke="none" stroke-width="1" fill="none" fill-rule="evenodd">
        <g id="ws-ext-fix" transform="translate(-368.000000, -222.000000)" fill="#FFFFFF" fill-rule="nonzero">
            <g id="Group-5" transform="translate(368.000000, 222.000000)">
                <path d="M19,12 L17,12 L17,3 C17,2.44771525 16.5522847,2 16,2 L3,2 C2.44771525,2 2,2.44771525 2,3 L2,19 C2,19.5522847 2.44771525,20 3,20 L10,20 L10,22 L3,22 C1.34314575,22 0,20.6568542 0,19 L0,3 C0,1.34314575 1.34314575,0 3,0 L16,0 C17.6568542,0 19,1.34314575 19,3 L19,12 Z M5,5 L14,5 L14,7 L5,7 L5,5 Z M5,10 L14,10 L14,12 L5,12 L5,10 Z M5,15 L5,17 L10,17 L10,15 L5,15 Z" id="whitelist_icon"></path>
            </g>
        </g>
    </g>
</svg>