<svg xmlns="http://www.w3.org/2000/svg" width="32" height="32" viewBox="0 0 32 32">
    <defs>
        <filter id="a" width="104.4%" height="106.7%" x="-2.2%" y="-2.4%" filterUnits="objectBoundingBox">
            <feOffset dy="2" in="SourceAlpha" result="shadowOffsetOuter1"/>
            <feGaussianBlur in="shadowOffsetOuter1" result="shadowBlurOuter1" stdDeviation="2"/>
            <feColorMatrix in="shadowBlurOuter1" result="shadowMatrixOuter1" values="0 0 0 0 0 0 0 0 0 0 0 0 0 0 0 0 0 0 0.233752264 0"/>
            <feMerge>
                <feMergeNode in="shadowMatrixOuter1"/>
                <feMergeNode in="SourceGraphic"/>
            </feMerge>
        </filter>
    </defs>
    <path fill="#FFF" fill-opacity=".5" fill-rule="nonzero" d="M297 186h-2v-11a1 1 0 0 0-1-1h-13a1 1 0 0 0-1 1v16a1 1 0 0 0 1 1h7v2h-7a3 3 0 0 1-3-3v-16a3 3 0 0 1 3-3h13a3 3 0 0 1 3 3v11zm-3 10l-4-4 1.5-1.5 2.5 2.5 6.5-6.5 1.5 1.5-8 8zm-11-19h9v2h-9v-2zm0 5h9v2h-9v-2zm0 5h5v2h-5v-2z" filter="url(#a)" transform="translate(-274 -170)"/>
</svg>
