<?xml version="1.0" encoding="UTF-8"?>
<svg width="124px" height="18px" viewBox="0 0 124 18" version="1.1" xmlns="http://www.w3.org/2000/svg" xmlns:xlink="http://www.w3.org/1999/xlink">
    <!-- Generator: Sketch 48.2 (47327) - http://www.bohemiancoding.com/sketch -->
    <title>Group 2 Copy 11</title>
    <desc>Created with Sketch.</desc>
    <defs>
        <polygon id="path-1" points="0.20558827 0.372607276 12.4234054 0.372607276 12.4234054 17.7230933 0.20558827 17.7230933"></polygon>
    </defs>
    <g id="Page-1" stroke="none" stroke-width="1" fill="none" fill-rule="evenodd">
        <g id="Group-47" transform="translate(-116.000000, -20.000000)">
            <g id="Group-2-Copy-11" transform="translate(116.000000, 20.000000)">
                <g id="Group">
                    <g id="Page-1-Copy">
                        <g id="Group-3" transform="translate(37.000000, 0.000000)">
                            <mask id="mask-2" fill="white">
                                <use xlink:href="#path-1"></use>
                            </mask>
                            <g id="Clip-2"></g>
                        </g>
                        <path d="M13.3333333,15.2903226 L8,9.41935484 L2.66666667,15.2903226 L2.66666667,4 L0,4 L0,18 L2.45111111,18 C3.15822222,18 3.83644444,17.7145806 4.33644444,17.2065161 L8,13.0322581 L11.6635556,17.2065161 C12.1635556,17.7145806 12.8417778,18 13.5488889,18 L16,18 L16,4 L13.3333333,4 L13.3333333,15.2903226 Z" id="Fill-7" fill="#000000"></path>
                        <polygon id="Fill-9" fill="#000000" points="19 18 22 18 22 4 19 4"></polygon>
                        <polygon id="Fill-11" fill="#000000" points="19 2 22 2 22 0 19 0"></polygon>
                        <polygon id="Fill-12" fill="#000000" points="90 18 93 18 93 4 90 4"></polygon>
                        <polygon id="Fill-13" fill="#000000" points="90 2 93 2 93 0 90 0"></polygon>
                        <path d="M31,4 C29.8092308,4 28.7024615,4.34367742 27.7692308,4.92896774 L27.7692308,4 L25,4 L25,18 L27.7692308,18 L27.7692308,9.87096774 C27.7692308,8.12503226 29.2156923,6.70967742 31,6.70967742 C32.7843077,6.70967742 34.2307692,8.12503226 34.2307692,9.87096774 L34.2307692,18 L37,18 L37,9.87096774 C37,6.6283871 34.3138462,4 31,4" id="Fill-14" fill="#000000"></path>
                        <path d="M66.7209741,11 C66.7209741,8.6303871 68.6501178,6.70967742 71.0293794,6.70967742 C72.1534957,6.70967742 73.1739199,7.14187097 73.9412412,7.84412903 L75.9302435,5.98709677 C74.6637863,4.75916129 72.9368421,4 71.0293794,4 C67.1470542,4 64,7.13419355 64,11 C64,14.8658065 67.1470542,18 71.0293794,18 C72.9703064,18 74.7278869,17.2164516 76,15.9496774 L74.0760408,14.0339355 C73.2959937,14.8102581 72.2190102,15.2903226 71.0293794,15.2903226 C68.6501178,15.2903226 66.7209741,13.3696129 66.7209741,11 Z" id="Fill-15" fill="#000000"></path>
                        <path d="M80.6469031,4.92896774 L80.6469031,4 L78,4 L78,18 L80.6469031,18 L80.6469031,9.87096774 C80.6469031,8.12503226 82.0294689,6.70967742 83.7349568,6.70967742 C84.7001941,6.70967742 85.5613199,7.16354839 86.127316,7.87348387 L88,5.95593548 C86.9500618,4.75825806 85.4307394,4 83.7349568,4 C82.5967884,4 81.5389095,4.34367742 80.6469031,4.92896774 Z" id="Fill-16" fill="#000000"></path>
                        <path d="M119.024756,7.28812178 L113.339846,13.1076297 C112.357424,11.4646551 112.524655,9.34342058 113.884394,7.95154387 C115.244133,6.55966716 117.359903,6.34334368 119.024756,7.28812178 Z M121.285397,11.0207178 C121.316142,12.1190449 120.935564,13.2146624 120.121304,14.0483432 C118.876624,15.3228001 116.997958,15.6118335 115.411829,14.9276372 L119.238103,11.0107823 L120.891311,9.31858177 L122.653055,7.515284 L122.835658,7.32831549 C122.546847,6.88392656 122.210057,6.46121514 121.814573,6.0746329 C119.00426,3.32746027 114.572415,3.30578276 111.914892,6.02631012 C109.257369,8.74638586 109.381278,13.1785332 112.191125,15.9257058 C115.000973,18.6724268 119.433283,18.6941043 122.090806,15.9740286 C123.419801,14.6133133 124.049594,12.8253704 123.996956,11.0342663 L121.285397,11.0207178 Z" id="Fill-17" fill="#000000"></path>
                        <path d="M57.8294667,6.58683871 C57.8401949,6.58458065 57.8536051,6.58232258 57.8647803,6.5796129 C59.4114255,6.26664516 61.1136293,7.84458065 61.1136293,7.84458065 L63,5.98754839 C61.7993384,4.7596129 60.1610567,4 58.3520182,4 C57.2219838,4 56.0789862,4.31567742 55.2301194,4.93303226 C55.1773725,4.9696129 55.1268607,5.00890323 55.0759018,5.04819355 C55.0602566,5.06083871 55.0446113,5.07393548 55.0294131,5.08658065 C54.7960753,5.27129032 54.5783827,5.47406452 54.3915337,5.70574194 C52.9651334,7.47425806 53.5855795,9.91974194 55.7772563,11.168 C55.8478834,11.2081935 55.9077824,11.2420645 55.9864557,11.2867742 L57.6573689,12.2383226 L58.4928255,12.7143226 L58.7015779,12.8330968 C59.5093201,13.2928387 59.7377408,14.1938065 59.2125073,14.8454839 C59.1441151,14.9299355 59.0636538,15.0157419 58.9742524,15.0992903 C57.355192,16.3850323 54.8863707,14.155871 54.8863707,14.155871 L53,16.0129032 C54.2011086,17.2408387 55.8389433,18 57.6479818,18 C59.2782173,18 60.7882079,17.4237419 61.6254526,16.3764516 C61.6558491,16.3412258 61.6893746,16.3091613 61.7188771,16.2725806 C63.1452774,14.5040645 62.5248313,12.0585806 60.3331545,10.8103226 C60.2625274,10.770129 60.2088865,10.739871 60.1239551,10.6915484 L59.2884985,10.216 L57.6175853,9.26445161 L57.4088329,9.14522581 C56.6010907,8.68548387 56.37267,7.78451613 56.8979035,7.13283871 C56.9600375,7.05606452 57.0190425,6.99193548 57.0802825,6.93458065 C57.3198784,6.75483871 57.5719905,6.64419355 57.8294667,6.58683871 Z" id="Fill-18" fill="#000000"></path>
                    </g>
                </g>
                <path d="M48,4 L48,0 L51,0 L51,18 L49,18 L46,18 C42.1340068,18 39,14.8659932 39,11 C39,7.13400675 42.1340068,4 46,4 L48,4 Z M48,7 L46,7 C43.790861,7 42,8.790861 42,11 C42,13.209139 43.790861,15 46,15 L48,15 L48,7 Z" id="Combined-Shape" fill="#000000"></path>
                <path d="M105,4 L105,0 L108,0 L108,18 L106,18 L103,18 C99.1340068,18 96,14.8659932 96,11 C96,7.13400675 99.1340068,4 103,4 L105,4 Z M105,7 L103,7 C100.790861,7 99,8.790861 99,11 C99,13.209139 100.790861,15 103,15 L105,15 L105,7 Z" id="Combined-Shape-Copy" fill="#000000" transform="translate(102.000000, 9.000000) scale(-1, 1) translate(-102.000000, -9.000000) "></path>
            </g>
        </g>
    </g>
</svg>