<?xml version="1.0" encoding="UTF-8"?>
<svg width="24px" height="24px" viewBox="0 0 24 24" version="1.1" xmlns="http://www.w3.org/2000/svg" xmlns:xlink="http://www.w3.org/1999/xlink">
    <!-- Generator: Sketch 51.3 (57544) - http://www.bohemiancoding.com/sketch -->
    <title>androidlogo</title>
    <desc>Created with Sketch.</desc>
    <defs></defs>
    <g id="Page-1" stroke="none" stroke-width="1" fill="none" fill-rule="evenodd">
        <g id="ws-ext-allowlist" transform="translate(-1151.000000, -154.000000)" fill="#FFFFFF" fill-rule="nonzero">
            <g id="Group-4" transform="translate(1151.000000, 154.000000)">
                <path d="M12,3.29289322 C7.16208418,3.29289322 3.1265769,6.72841258 2.20003623,11.2928932 L21.7999638,11.2928932 C20.8734231,6.72841258 16.8379158,3.29289322 12,3.29289322 Z M20.1873631,4.51974369 C22.5333471,6.71002377 24,9.83018092 24,13.2928932 L0,13.2928932 C0,9.83018092 1.46665294,6.71002377 3.81263691,4.51974369 L1,1.70710678 C0.609475708,1.31658249 0.609475708,0.683417511 1,0.292893219 C1.39052429,-0.0976310729 2.02368927,-0.0976310729 2.41421356,0.292893219 L5.39436271,3.27304236 C7.28897235,2.02149109 9.5593996,1.29289322 12,1.29289322 C14.4406004,1.29289322 16.7110277,2.02149109 18.6056373,3.27304236 L21.5857864,0.292893219 C21.9763107,-0.0976310729 22.6094757,-0.0976310729 23,0.292893219 C23.3905243,0.683417511 23.3905243,1.31658249 23,1.70710678 L20.1873631,4.51974369 Z M8.5,9.29289322 C9.32842712,9.29289322 10,8.62132034 10,7.79289322 C10,6.96446609 9.32842712,6.29289322 8.5,6.29289322 C7.67157288,6.29289322 7,6.96446609 7,7.79289322 C7,8.62132034 7.67157288,9.29289322 8.5,9.29289322 Z M2,22 L22,22 L22,17 L2,17 L2,22 Z M0,23 L0,17 L0,15 L24,15 L24,17 L24,23 L24,24 L0,24 L0,23 Z M15.5,9.29289322 C14.6715729,9.29289322 14,8.62132034 14,7.79289322 C14,6.96446609 14.6715729,6.29289322 15.5,6.29289322 C16.3284271,6.29289322 17,6.96446609 17,7.79289322 C17,8.62132034 16.3284271,9.29289322 15.5,9.29289322 Z" id="androidlogo"></path>
            </g>
        </g>
    </g>
</svg>