<svg xmlns="http://www.w3.org/2000/svg" width="20" height="24" viewBox="0 0 20 24">
    <path fill-rule="nonzero" d="M15 8c-1.067 0-1.83.135-2.618.397C11.488 8.755 10.754 9 10 9c-.628 0-1.163-.143-1.72-.405a25.925 25.925 0 0 1-.65-.332 2.413 2.413 0 0 0-.878-.278C4.103 7.653 2 10.072 2 14c0 3.342.716 5.412 1.848 6.632.461.498.748.68 1.546 1.08.474.236 1.438.236 2.474-.11C9.076 21.2 9.875 21 10.5 21h.5c.491 0 .939.096 1.431.27.24.085 1.106.44.937.373.57.228.986.336 1.48.354 1.05-.218 1.982-1.256 2.722-3.337-1.971-1.09-3.07-2.855-3.07-5.16 0-2.034.856-3.648 2.412-4.749C16.312 8.233 15.681 8 15 8zm-4.5 15c-.333 0-1 .167-2 .5-1.5.5-3 .5-4 0S0 21.5 0 14c0-5 3-8.5 7-8 1.582.198 2 1 3 1s2-1 5-1c2 0 3.667 1.167 5 3.5-2.333.667-3.5 2-3.5 4s1.167 3.333 3.5 4c-1 4-2.667 6.167-5 6.5-2 0-3-1-4-1h-.5zM10 5.5c-.333-1.667 0-3 1-4S13.333 0 15 0c0 3.333-1.667 5.167-5 5.5z"/>
</svg>
