<?xml version="1.0" encoding="UTF-8"?>
<svg width="24px" height="24px" viewBox="0 0 24 24" version="1.1" xmlns="http://www.w3.org/2000/svg" xmlns:xlink="http://www.w3.org/1999/xlink">
    <!-- Generator: Sketch 51.3 (57544) - http://www.bohemiancoding.com/sketch -->
    <title>chromeOS_icon</title>
    <desc>Created with Sketch.</desc>
    <defs></defs>
    <g id="Page-1" stroke="none" stroke-width="1" fill="none" fill-rule="evenodd">
        <g id="ws-ext-allowlist" transform="translate(-1212.000000, -117.000000)" fill="#FFFFFF">
            <path d="M1230,137 L1228,137 L1228,140 L1230,140 L1230,137 Z M1231,137 L1231,140 L1231,141 L1227,141 L1227,140 L1227,137 L1227,136 L1231,136 L1231,137 Z M1235,140 L1235,139 L1232,139 L1232,138 L1236,138 L1236,139 L1236,140 L1236,141 L1232,141 L1232,140 L1235,140 Z M1232.00073,135 C1233.25611,133.328679 1234,131.251212 1234,129 C1234,127.954794 1233.83965,126.947041 1233.5422,126 L1228.00037,126 C1228.62806,126.835661 1229,127.874394 1229,129 C1229,130.636478 1228.21381,132.089331 1226.99853,133.00147 L1221.35385,138.64615 C1222.19669,138.876831 1223.08396,139 1224,139 C1224.68493,139 1225.35378,138.931139 1226,138.799964 L1226,140.834083 C1225.34958,140.943202 1224.68142,141 1224,141 C1217.37258,141 1212,135.627417 1212,129 C1212,122.372583 1217.37258,117 1224,117 C1230.62742,117 1236,122.372583 1236,129 C1236,131.185723 1235.41563,133.23496 1234.39461,135 L1232.00073,135 Z M1216.52649,122.355546 L1219.40306,127.029978 C1220.1677,125.248077 1221.9381,124 1224,124 L1232.66218,124 C1230.93313,121.010993 1227.70141,119 1224,119 C1221.02763,119 1218.35815,120.296826 1216.52649,122.355546 Z M1215.10244,124.431039 C1214.39777,125.800542 1214,127.353819 1214,129 C1214,132.789998 1216.1084,136.087552 1219.21627,137.783726 L1223.08376,133.916238 C1221.58865,133.63935 1220.32696,132.697242 1219.61722,131.408433 L1215.10244,124.431039 Z M1224,132 C1225.65685,132 1227,130.656854 1227,129 C1227,127.343146 1225.65685,126 1224,126 C1222.34315,126 1221,127.343146 1221,129 C1221,130.656854 1222.34315,132 1224,132 Z M1233,136 L1236,136 L1236,137 L1233,137 L1233,136 Z M1232,136 L1233,136 L1233,138 L1232,138 L1232,136 Z" id="chromeOS_icon"></path>
        </g>
    </g>
</svg>