<svg xmlns="http://www.w3.org/2000/svg" width="24" height="24" viewBox="0 0 24 24">
    <path fill-rule="evenodd" d="M4.526 5.356l2.877 4.674A5.001 5.001 0 0 1 12 7h8.662A9.996 9.996 0 0 0 12 2a9.975 9.975 0 0 0-7.474 3.356zM3.102 7.43A9.957 9.957 0 0 0 2 12a9.998 9.998 0 0 0 5.216 8.784l3.868-3.868a5.006 5.006 0 0 1-3.467-2.508L3.102 7.431zM21.542 9H16c.628.836 1 1.874 1 3 0 1.636-.786 3.09-2.001 4.001l-5.645 5.645c.843.23 1.73.354 2.646.354 5.523 0 10-4.477 10-10 0-1.045-.16-2.053-.458-3zM12 24C5.373 24 0 18.627 0 12S5.373 0 12 0s12 5.373 12 12-5.373 12-12 12zm0-9a3 3 0 1 0 0-6 3 3 0 0 0 0 6z"/>
</svg>
