<svg xmlns="http://www.w3.org/2000/svg" width="24" height="24" viewBox="0 0 24 24">
    <path fill-rule="nonzero" d="M12 22c5.523 0 10-4.477 10-10S17.523 2 12 2 2 6.477 2 12s4.477 10 10 10zm0 2C5.373 24 0 18.627 0 12S5.373 0 12 0s12 5.373 12 12-5.373 12-12 12zm0-23c-1.333.667-3.5 2.5-3 5 .667.333 1.833.5 3.5.5-.667 1.667-1.667 2.667-3 3L10 12l-2-1c-.333 2.333 1.559 3.456 3.5 2 2-1.5 3.5-1 3.5 0 0 .5-.5 1-1 1-.667 1.667-2.333 2.5-5 2.5 1 .667 2.333 1 4 1 2.5 0 8-2 4-10 1.667.333 3.667 1.667 4 3C21 7 19.833 5 16.5 3L21 5l2 6-1 5-4 5-4 2-7-1-5-5-1-5 .5-5c.32-1.971.652-3.305 1-4 .348-.695.848-1.362 1.5-2l1.5 2.5L10 1h2z"/>
</svg>
