<?xml version="1.0" encoding="UTF-8"?>
<svg width="19px" height="24px" viewBox="0 0 19 24" version="1.1" xmlns="http://www.w3.org/2000/svg" xmlns:xlink="http://www.w3.org/1999/xlink">
    <!-- Generator: Sketch 51.3 (57544) - http://www.bohemiancoding.com/sketch -->
    <title>linux_icon</title>
    <desc>Created with Sketch.</desc>
    <defs></defs>
    <g id="Page-1" stroke="none" stroke-width="1" fill="none" fill-rule="evenodd">
        <g id="ws-ext-allowlist" transform="translate(-1227.000000, -188.000000)" fill="#FFFFFF" fill-rule="nonzero">
            <g id="Group-108" transform="translate(1227.000000, 188.000000)">
                <path d="M9.11734259,22.0978325 C12.0055071,22.0978325 14.5478088,20.6620727 16.7879715,17.7139068 C16.5001452,17.0010604 16.2534438,15.9899733 16.0261675,14.6515111 C15.9587027,14.2542012 15.934891,13.8102744 15.9071231,12.7767755 C15.8448699,10.4597639 15.7856494,9.46242214 15.5661656,8.10901911 C14.8727186,3.83301589 13.0215931,1.65775556 9.1807555,1.92493133 C5.46031337,2.18373217 3.62958719,4.29277192 3.0738675,7.87299561 C2.83416455,9.41728171 2.85749831,11.019918 3.04841642,12.8471683 C3.07738148,13.1243889 3.17137249,13.929063 3.18396818,14.0575694 C3.32371505,15.4833235 2.98615074,17.0232579 2.19318569,18.675832 C3.96773786,20.9715789 6.25188676,22.0978325 9.11734259,22.0978325 Z M0.277763781,18.3152802 C1.10243043,16.7654317 1.44279744,15.4099871 1.3287905,14.2468421 C1.31837057,14.1405337 1.22536167,13.3442677 1.1944895,13.0487945 C0.987711186,11.0697484 0.962181083,9.31625981 1.23238456,7.57547407 C1.91336204,3.18827715 4.37478499,0.352659842 9.05392968,0.0271698778 C14.0327305,-0.31916472 16.5732775,2.66623591 17.4055889,7.7985188 C17.643726,9.2669439 17.706238,10.3197177 17.7708535,12.7246535 C17.7956783,13.6486121 17.8176599,14.0584196 17.8632344,14.3268143 C18.1261137,15.874948 18.4114922,16.8939892 18.6685404,17.3156943 L19,17.8594765 L18.6308323,18.3773563 C15.97988,22.0961934 12.7918357,24 9.11734259,24 C5.45997623,24 2.50465729,22.4229518 0.337883828,19.3210118 L0,18.8372994 L0.277763781,18.3152802 Z M11.0656947,13.5592088 C9.33704687,13.5592088 7.9833343,11.8380898 7.9833343,9.77309985 C7.9833343,7.70810987 9.33704687,5.98699092 11.0656947,5.98699092 C12.7943426,5.98699092 14.1480552,7.70810987 14.1480552,9.77309985 C14.1480552,11.8380898 12.7943426,13.5592088 11.0656947,13.5592088 Z M11.0656947,11.454408 C11.7120317,11.454408 12.2836247,10.727681 12.2836247,9.77309985 C12.2836247,8.81851874 11.7120317,8.09179167 11.0656947,8.09179167 C10.4193578,8.09179167 9.8477648,8.81851874 9.8477648,9.77309985 C9.8477648,10.727681 10.4193578,11.454408 11.0656947,11.454408 Z M15.0802704,15.4889005 C15.0802704,17.1906686 10.3436554,20.9251072 7.79308803,20.9251072 C5.40901996,20.9251072 2.531286,18.1215091 1.97809819,16.4291547 C1.39064665,14.6319782 4.11679788,11.5541026 7.25128635,11.5541026 C10.4992411,11.5541026 15.0802704,13.7524766 15.0802704,15.4889005 Z M12.9378831,15.4129394 C12.5876934,15.1342201 12.0738519,14.8237049 11.4784753,14.5379918 C10.0966481,13.8748715 8.53806626,13.4562701 7.25128635,13.4562701 C6.12765359,13.4562701 5.19084825,13.9284999 4.49455452,14.7146285 C4.219674,15.0249737 4.00413181,15.3649784 3.87475484,15.6700742 C3.83366748,15.7669661 3.80467269,15.8529146 3.78822794,15.9200127 C3.95566373,16.2392093 4.52914912,17.003272 5.14479949,17.603062 C6.06695457,18.5014607 7.00562168,19.0229397 7.79308803,19.0229397 C8.62560229,19.0229397 9.9693826,18.3521499 11.3056819,17.2985858 C11.8888047,16.8388405 12.4212413,16.3431911 12.8023951,15.9122111 C12.9212617,15.7778058 13.0208647,15.6546301 13.0976881,15.548531 C13.0516112,15.5064418 12.9981502,15.4609065 12.9378831,15.4129394 Z M4.77604582,13.4562701 C4.18938367,13.4562701 3.40513222,13.843919 2.9614722,13.4562701 C2.17904754,12.7726248 1.9295432,10.9762678 1.9295432,9.67016114 C1.9295432,7.62344993 3.15476502,5.88405221 4.77604582,5.88405221 C6.39732663,5.88405221 7.62254845,7.62344993 7.62254845,9.67016114 C7.62254845,11.7168724 6.39732663,13.4562701 4.77604582,13.4562701 Z M4.77604582,11.3193245 C5.26922847,11.3193245 5.75811795,10.6252679 5.75811795,9.67016114 C5.75811795,8.71505437 5.26922847,8.0209978 4.77604582,8.0209978 C4.28286318,8.0209978 3.7939737,8.71505437 3.7939737,9.67016114 C3.7939737,10.6252679 4.28286318,11.3193245 4.77604582,11.3193245 Z" id="linux_icon"></path>
            </g>
        </g>
    </g>
</svg>