<?xml version="1.0" encoding="UTF-8"?>
<svg width="24px" height="24px" viewBox="0 0 24 24" version="1.1" xmlns="http://www.w3.org/2000/svg" xmlns:xlink="http://www.w3.org/1999/xlink">
    <!-- Generator: Sketch 51.3 (57544) - http://www.bohemiancoding.com/sketch -->
    <title>openbsd_icon</title>
    <desc>Created with Sketch.</desc>
    <defs></defs>
    <g id="Page-1" stroke="none" stroke-width="1" fill="none" fill-rule="evenodd">
        <g id="ws-ext-allowlist" transform="translate(-1252.000000, -194.000000)" fill="#FFFFFF" fill-rule="nonzero">
            <path d="M1256.58567,209.771849 C1256.81482,210.419457 1257.1243,211.028323 1257.50194,211.586126 L1256.35235,214.613672 L1259.2868,213.470455 C1260.60132,214.467154 1262.23356,215.057472 1264.0019,215.057472 C1265.72241,215.057472 1267.31406,214.498666 1268.60962,213.55046 L1271.33871,214.613672 L1270.29814,211.873237 C1270.76848,211.240377 1271.14799,210.534326 1271.41703,209.774961 C1271.96697,210.405102 1272.84757,210.98122 1274.05885,211.503316 C1274.22087,208.768032 1273.49285,207.218989 1271.87479,206.856185 C1271.82398,204.986115 1271.13782,203.276819 1270.02712,201.94182 L1271.33871,198.487617 L1267.55893,199.960163 C1266.84302,199.592461 1266.06418,199.33229 1265.24313,199.20063 L1263.93459,197.365113 L1262.66509,199.216572 C1261.82819,199.361513 1261.03635,199.640203 1260.31178,200.030152 L1256.35235,198.487617 L1257.76489,202.207684 C1256.77937,203.500203 1256.17671,205.107528 1256.12904,206.855327 C1254.50829,207.216541 1253.77899,208.765871 1253.94115,211.503316 C1255.15441,210.980361 1256.03592,210.403206 1256.58567,209.771849 Z M1254.693,213.29301 L1252.18749,214.372961 L1252.02441,211.619806 C1251.85245,208.716887 1252.58571,206.541265 1254.33012,205.496759 C1254.52987,204.236805 1254.96648,203.037272 1255.61177,201.955371 L1253.00921,195.10129 L1260.23679,197.917044 C1260.65274,197.741516 1261.08084,197.595159 1261.51843,197.479278 L1263.90409,194 L1266.36175,197.447411 C1266.78898,197.554513 1267.20755,197.690568 1267.61502,197.854418 L1274.68185,195.10129 L1272.19789,201.643016 C1272.94985,202.803893 1273.45492,204.114687 1273.67409,205.499371 C1275.41573,206.544999 1276.1474,208.719332 1275.97559,211.619806 L1275.8125,214.372961 L1273.30699,213.29301 C1273.13632,213.219448 1272.97037,213.144495 1272.80915,213.068071 L1274.68185,218 L1268.82491,215.71823 C1267.3706,216.552954 1265.71796,217.002465 1264.0019,217.002465 C1262.23573,217.002465 1260.53728,216.526252 1259.0537,215.64516 L1253.00921,218 L1254.81703,213.238939 C1254.77597,213.257046 1254.73463,213.275069 1254.693,213.29301 Z M1261.11972,210.980067 C1259.26386,210.980067 1257.7594,209.020759 1257.7594,206.603832 C1257.7594,204.186904 1259.26386,202.227597 1261.11972,202.227597 C1262.97558,202.227597 1264.48004,204.186904 1264.48004,206.603832 C1264.48004,209.020759 1262.97558,210.980067 1261.11972,210.980067 Z M1261.11956,209.034056 C1261.91484,209.034056 1262.55955,207.945552 1262.55955,206.602814 C1262.55955,205.260076 1261.91484,204.171572 1261.11956,204.171572 C1260.32428,204.171572 1259.67958,205.260076 1259.67958,206.602814 C1259.67958,207.945552 1260.32428,209.034056 1261.11956,209.034056 Z M1266.88028,210.980067 C1265.02442,210.980067 1263.51995,209.020759 1263.51995,206.603832 C1263.51995,204.186904 1265.02442,202.227597 1266.88028,202.227597 C1268.73613,202.227597 1270.2406,204.186904 1270.2406,206.603832 C1270.2406,209.020759 1268.73613,210.980067 1266.88028,210.980067 Z M1266.88012,209.034056 C1267.6754,209.034056 1268.3201,207.945552 1268.3201,206.602814 C1268.3201,205.260076 1267.6754,204.171572 1266.88012,204.171572 C1266.08484,204.171572 1265.44014,205.260076 1265.44014,206.602814 C1265.44014,207.945552 1266.08484,209.034056 1266.88012,209.034056 Z" id="openbsd_icon"></path>
        </g>
    </g>
</svg>