<?xml version="1.0" encoding="UTF-8"?>
<svg width="323px" height="160px" viewBox="0 0 323 160" version="1.1" xmlns="http://www.w3.org/2000/svg" xmlns:xlink="http://www.w3.org/1999/xlink">
    <!-- Generator: Sketch 61.2 (89653) - https://sketch.com -->
    <title>autopilotbg2</title>
    <desc>Created with Sketch.</desc>
    <g id="Designs" stroke="none" stroke-width="1" fill="none" fill-rule="evenodd">
        <g id="autopilotbg2" transform="translate(-1.000000, 0.000000)" fill="#FFFFFF" fill-rule="nonzero">
            <path d="M323.00569,133.003268 L323.00569,134.270048 L0.99646848,134.270048 L0.99646848,133.003268 L323.00569,133.003268 Z M323.00569,115.21305 L323.00569,116.056691 L0.996464287,116.056691 L0.996464287,115.213094 L323.00569,115.21305 Z M323.005686,103.356398 L323.005686,103.916422 L0.996464287,103.916422 L0.996464287,103.356398 L323.005686,103.356398 Z M323.00569,95.4475374 L323.00569,95.8224793 L0.99646848,95.8224793 L0.99646848,95.4475374 L323.00569,95.4475374 Z M323.00569,90.1764293 L323.00569,90.4260045 L0.99646848,90.4260045 L0.99646848,90.1764293 L323.00569,90.1764293 Z M323.00569,86.6623571 L323.00569,86.8295026 L0.99646848,86.8295026 L0.99646848,86.6623571 L323.00569,86.6623571 Z M323.00569,84.3206486 L323.00569,84.4311264 L0.99646848,84.4310971 L0.99646848,84.3206193 L323.00569,84.3206486 Z M323.00569,82.7584838 L323.00569,82.8328992 L0.99646848,82.8328992 L0.99646848,82.7584838 L323.00569,82.7584838 Z M323.00569,81.7166141 L323.00569,81.7658434 L0.99646848,81.7658009 L0.99646848,81.7165716 L323.00569,81.7166141 Z M323.00569,81.023429 L323.00569,81.0560565 L0.99646848,81.0560565 L0.99646848,81.023429 L323.00569,81.023429 Z M323.00569,80.5603569 L323.00569,80.5809636 L0.99646848,80.5809636 L0.99646848,80.5603569 L323.00569,80.5603569 Z M323.00569,80.2511332 L323.00569,80.2660175 L0.99646848,80.266038 L0.99646848,80.2511537 L323.00569,80.2511332 Z M323.005686,80.0430644 L323.005686,80.0567953 L0.996464287,80.0567953 L0.996464287,80.0430644 L323.005686,80.0430644 Z M323.005686,79.9067805 L323.005686,79.9205115 L0.996464287,79.9205115 L0.996464287,79.9067805 L323.005686,79.9067805 Z M323.005686,79.8144592 L323.005686,79.8281901 L0.996464287,79.8282634 L0.996464287,79.8144592 L323.005686,79.8144592 Z M323.005686,79.7499808 L323.005686,79.7637118 L0.996464287,79.7637118 L0.996464287,79.7499808 L323.005686,79.7499808 Z" id="Shape"></path>
            <path d="M5.34959497,159.116022 L1.16062546,159.116022 L162.071625,79.711892 L5.34959497,159.116022 L5.34959497,159.116022 Z M64.6734886,159.116037 L162.084892,79.7050684 L162.083625,79.710892 L195.978835,159.116037 L191.788193,159.116037 L162.082625,79.709892 L132.378239,159.116037 L132.378239,159.116037 L128.187596,159.116037 L162.082625,79.709892 L162.081625,79.707892 L68.8631286,159.116037 L68.8631286,159.116037 L64.6734886,159.116037 Z M255.303303,159.116037 L162.081539,79.7050684 L162.081539,79.7050684 L259.492943,159.116037 L255.303303,159.116037 Z M318.816737,159.116037 L162.081539,79.7050684 L162.081539,79.7050684 L323.00569,159.116037 L318.816737,159.116037 Z M323.00569,134.409466 L162.084867,79.7070831 L162.084867,79.7070831 L323.00569,133.140361 L323.00569,134.409466 Z M1.16409431,133.140361 L162.0849,79.7070831 L1.16409431,134.409466 L1.16409431,134.409466 L1.16409431,133.140361 Z M162.058625,79.708892 L1.16409431,116.13149 L1.16409431,115.28444 L162.058625,79.708892 Z M162.083207,79.704039 L162.108625,79.708892 L323.00569,115.284558 L323.00569,116.131608 L162.083207,79.704039 L162.083207,79.704039 Z M1.16409431,103.943056 L1.16409431,103.381297 L161.971625,79.715892 L1.16409431,103.943056 L1.16409431,103.943056 Z M323.00569,103.381297 L323.00569,103.943056 L162.201893,79.7164046 L323.00569,103.381297 Z M162.230625,79.717892 L162.195625,79.711892 L162.40322,79.7255666 L162.40322,79.7255666 L323.00569,86.6402034 L323.00569,86.8079958 L162.41922,79.7266062 L323.00569,90.1608439 L323.00569,90.4112826 L162.290625,79.719892 L162.360625,79.722892 L162.195625,79.711892 L323.00569,95.4462899 L323.00569,95.8227567 L162.266625,79.718892 L162.230625,79.717892 Z M161.913893,79.7158853 L1.16409431,95.8227567 L1.16409431,95.8227567 L1.16409431,95.4462899 L161.774894,79.7249171 C161.821227,79.7219065 161.86756,79.7188959 161.913893,79.7158853 Z M1.16409431,86.6402034 L81.6245084,83.1756984 L161.710895,79.7290756 L161.710895,79.7290756 L1.16409431,90.4112826 L1.16409431,90.4112826 L1.16409431,90.1608439 L161.710895,79.7290756 L161.710895,79.7290756 L1.16409431,86.8079958 L1.16409431,86.6402034 Z M323.00569,84.3962116 L162.08319,79.7064066 L162.08319,79.7064066 L323.00569,84.2853304 L323.00569,84.3962116 Z M161.877625,79.711892 L161.907625,79.709892 L161.967893,79.7123766 L161.975625,79.710892 L161.921625,79.710892 L1.16409431,84.3962116 L1.16409431,84.2853304 L161.803625,79.712892 L1.16409431,82.7931545 L1.16409431,82.7185964 L161.792625,79.712892 L1.16409431,81.725033 L1.16409431,81.6756218 L161.877625,79.711892 Z M323.00569,82.7931545 L162.567625,79.715892 L323.00569,81.6756218 L323.00569,81.6756218 L323.00569,81.725033 L162.567625,79.715892 L323.00569,82.7185964 L323.00569,82.7931545 Z M323.00569,80.9697613 L323.00569,81.002511 L165.21025,79.7235965 L323.00569,80.5138836 L323.00569,80.5345599 L165.349625,79.724892 L323.00569,80.9697613 L323.00569,80.9697613 Z M1.16409431,80.5138836 L159.054625,79.723892 L1.16409431,81.002511 L1.16409431,80.9697613 L158.822625,79.724892 L1.16409431,80.5345599 L1.16409431,80.5138836 Z M323.00569,80.219769 L164.184625,79.715892 L162.843625,79.704892 L167.730625,79.708892 L323.00569,79.7647736 L323.00569,79.778597 L169.080625,79.709892 L323.00569,79.853008 L323.00569,79.8668314 L168.173625,79.709892 L323.00569,79.9856537 L323.00569,79.999183 L166.735625,79.708892 L162.853625,79.704892 L164.119625,79.714892 L323.00569,80.204828 L323.00569,80.219769 Z M1.16409431,80.219769 L1.16409431,80.204828 L159.988625,79.715892 L1.16409431,80.219769 L1.16409431,80.219769 Z M1.16409431,79.7647736 L156.436625,79.708892 L1.16409431,79.999183 L1.16409431,79.9856537 L155.992625,79.709892 L1.16409431,79.8668314 L1.16409431,79.853008 L155.089625,79.709892 L1.16409431,79.778597 L1.16409431,79.778597 L1.16409431,79.7647736 Z" id="Shape"></path>
            <path d="M323.006149,26.2536354 L323.006149,24.9868548 L0.99692727,24.9868548 L0.99692727,26.2536354 L323.006149,26.2536354 Z M323.006149,44.0438528 L323.006149,43.2002117 L0.996923077,43.2002117 L0.996923077,44.0438088 L323.006149,44.0438528 Z M323.006145,55.9005051 L323.006145,55.340481 L0.996923077,55.340481 L0.996923077,55.9005051 L323.006145,55.9005051 Z M323.006149,63.8093656 L323.006149,63.4344237 L0.99692727,63.4344237 L0.99692727,63.8093656 L323.006149,63.8093656 Z M323.006149,69.0804738 L323.006149,68.8308985 L0.99692727,68.8308985 L0.99692727,69.0804738 L323.006149,69.0804738 Z M323.006149,72.5945459 L323.006149,72.4274004 L0.99692727,72.4274004 L0.99692727,72.5945459 L323.006149,72.5945459 Z M323.006149,74.9362544 L323.006149,74.8257766 L0.99692727,74.8258059 L0.99692727,74.9362838 L323.006149,74.9362544 Z M323.006149,76.4984192 L323.006149,76.4240039 L0.99692727,76.4240039 L0.99692727,76.4984192 L323.006149,76.4984192 Z M323.006149,77.5402889 L323.006149,77.4910596 L0.99692727,77.4911021 L0.99692727,77.5403314 L323.006149,77.5402889 Z M323.006149,78.2334741 L323.006149,78.2008465 L0.99692727,78.2008465 L0.99692727,78.2334741 L323.006149,78.2334741 Z M323.006149,78.6965461 L323.006149,78.6759394 L0.99692727,78.6759394 L0.99692727,78.6965461 L323.006149,78.6965461 Z M323.006149,79.0057698 L323.006149,78.9908856 L0.99692727,78.990865 L0.99692727,79.0057493 L323.006149,79.0057698 Z M323.006145,79.2138386 L323.006145,79.2001077 L0.996923077,79.2001077 L0.996923077,79.2138386 L323.006145,79.2138386 Z M323.006145,79.3501225 L323.006145,79.3363915 L0.996923077,79.3363915 L0.996923077,79.3501225 L323.006145,79.3501225 Z M323.006145,79.4424438 L323.006145,79.4287129 L0.996923077,79.4286396 L0.996923077,79.4424438 L323.006145,79.4424438 Z M323.006145,79.5069222 L323.006145,79.4931913 L0.996923077,79.4931913 L0.996923077,79.5069222 L323.006145,79.5069222 Z" id="Shape"></path>
            <path d="M5.35005376,0.140880914 L1.16108425,0.140880914 L162.072084,79.545011 L5.35005376,0.140880914 L5.35005376,0.140880914 Z M64.6739474,0.14086624 L162.085351,79.5518346 L162.084084,79.546011 L195.979294,0.14086624 L191.788652,0.14086624 L162.083084,79.547011 L132.378698,0.14086624 L132.378698,0.14086624 L128.188055,0.14086624 L162.083084,79.547011 L162.082084,79.549011 L68.8635874,0.14086624 L68.8635874,0.14086624 L64.6739474,0.14086624 Z M255.303762,0.14086624 L162.081998,79.5518346 L162.081998,79.5518346 L259.493402,0.14086624 L255.303762,0.14086624 Z M318.817196,0.14086624 L162.081998,79.5518346 L162.081998,79.5518346 L323.006149,0.14086624 L318.817196,0.14086624 Z M323.006149,24.8474375 L162.085326,79.54982 L162.085326,79.54982 L323.006149,26.1165421 L323.006149,24.8474375 Z M1.1645531,26.1165421 L162.085359,79.54982 L1.1645531,24.8474375 L1.1645531,24.8474375 L1.1645531,26.1165421 Z M162.059084,79.548011 L1.1645531,43.1254125 L1.1645531,43.9724627 L162.059084,79.548011 Z M162.083666,79.552864 L162.109084,79.548011 L323.006149,43.972345 L323.006149,43.1252949 L162.083666,79.552864 L162.083666,79.552864 Z M1.1645531,55.3138468 L1.1645531,55.8756059 L161.972084,79.541011 L1.1645531,55.3138468 L1.1645531,55.3138468 Z M323.006149,55.8756059 L323.006149,55.3138468 L162.202351,79.5404984 L323.006149,55.8756059 Z M162.231084,79.539011 L162.196084,79.545011 L162.403679,79.5313364 L162.403679,79.5313364 L323.006149,72.6166996 L323.006149,72.4489072 L162.419679,79.5302968 L323.006149,69.0960591 L323.006149,68.8456204 L162.291084,79.537011 L162.361084,79.534011 L162.196084,79.545011 L323.006149,63.8106131 L323.006149,63.4341463 L162.267084,79.538011 L162.231084,79.539011 Z M161.914352,79.5410177 L1.1645531,63.4341463 L1.1645531,63.4341463 L1.1645531,63.8106131 L161.775353,79.5319859 C161.821686,79.5349965 161.868019,79.5380071 161.914352,79.5410177 Z M1.1645531,72.6166996 L81.6249672,76.0812046 L161.711354,79.5278274 L161.711354,79.5278274 L1.1645531,68.8456204 L1.1645531,68.8456204 L1.1645531,69.0960591 L161.711354,79.5278274 L161.711354,79.5278274 L1.1645531,72.4489072 L1.1645531,72.6166996 Z M323.006149,74.8606914 L162.083649,79.5504964 L162.083649,79.5504964 L323.006149,74.9715726 L323.006149,74.8606914 Z M161.878084,79.545011 L161.908084,79.547011 L161.968352,79.5445265 L161.976084,79.546011 L161.922084,79.546011 L1.1645531,74.8606914 L1.1645531,74.9715726 L161.804084,79.544011 L1.1645531,76.4637485 L1.1645531,76.5383066 L161.793084,79.544011 L81.6249531,78.5379296 L1.1645531,77.53187 L1.1645531,77.5812812 L161.878084,79.545011 Z M323.006149,76.4637485 L162.568084,79.541011 L323.006149,77.5812812 L323.006149,77.5812812 L323.006149,77.53187 L242.545749,78.5379296 L162.568084,79.541011 L323.006149,76.5383066 L323.006149,76.4637485 Z M323.006149,78.2871417 L323.006149,78.254392 L165.210709,79.5333065 L323.006149,78.7430194 L323.006149,78.7223431 L165.350084,79.532011 L323.006149,78.2871417 L323.006149,78.2871417 Z M1.1645531,78.7430194 L159.055084,79.533011 L1.1645531,78.254392 L1.1645531,78.2871417 L158.823084,79.532011 L1.1645531,78.7223431 L1.1645531,78.7430194 Z M162.115351,79.5533019 L162.143084,79.549011 L162.131675,79.5490099 L162.131675,79.5490099 L162.111351,79.5538906 L162.111351,79.5538906 L167.731084,79.548011 L323.006149,79.4921294 L323.006149,79.478306 L169.081084,79.547011 L323.006149,79.403895 L323.006149,79.3900716 L168.174084,79.547011 L323.006149,79.2712493 L323.006149,79.25772 L166.736084,79.548011 L162.854084,79.552011 L164.120084,79.542011 L323.006149,79.052075 L323.006149,79.037134 L163.970084,79.542011 L162.787084,79.552011 L162.115351,79.5533019 Z M1.1645531,79.037134 L1.1645531,79.052075 L159.989084,79.541011 L1.1645531,79.037134 L1.1645531,79.037134 Z M1.1645531,79.4921294 L156.437084,79.548011 L1.1645531,79.25772 L1.1645531,79.2712493 L155.993084,79.547011 L1.1645531,79.3900716 L1.1645531,79.403895 L155.090084,79.547011 L1.1645531,79.478306 L1.1645531,79.478306 L1.1645531,79.4921294 Z" id="Shape"></path>
        </g>
    </g>
</svg>