<?xml version="1.0" encoding="UTF-8"?>
<svg  viewBox="0 0 32 16" version="1.1" xmlns="http://www.w3.org/2000/svg" xmlns:xlink="http://www.w3.org/1999/xlink">
    <!-- Generator: Sketch 51.3 (57544) - http://www.bohemiancoding.com/sketch -->
    <title>USA</title>
    <desc>Created with Sketch.</desc>
    <defs></defs>
    <g id="Page-1" stroke="none" stroke-width="1" fill="none" fill-rule="evenodd">
        <g id="USA" fill-rule="nonzero">
            <polygon id="Shape" fill="#B22234" points="0 0 32 0 32 16 0 16"></polygon>
            <path d="M0,1.248 L32,1.248 L32,2.496 L0,2.496 L0,1.248 Z M0,3.712 L32,3.712 L32,4.96 L0,4.96 L0,3.712 Z M0,6.144 L32,6.144 L32,7.392 L0,7.392 L0,6.144 Z M0,8.608 L32,8.608 L32,9.856 L0,9.856 L0,8.608 Z M0,11.104 L32,11.104 L32,12.352 L0,12.352 L0,11.104 Z M0,13.536 L32,13.536 L32,14.784 L0,14.784 L0,13.536 Z" id="Shape" fill="#FFFFFF"></path>
            <polygon id="Shape" fill="#3C3B6E" points="0 0 12.16 0 12.16 8.608 0 8.608"></polygon>
            <path d="M4.0544,1.21248 L4.34336,2.10176 L3.58624,1.552 L4.52224,1.552 L3.76512,2.10176 L4.0544,1.21248 Z M4.0544,2.93312 L4.34336,3.82272 L3.58624,3.27264 L4.52224,3.27264 L3.76512,3.8224 L4.0544,2.93312 Z M4.0544,4.65376 L4.34336,5.54336 L3.58624,4.9936 L4.52224,4.9936 L3.76512,5.54304 L4.0544,4.65376 Z M4.0544,6.3744 L4.34336,7.264 L3.58624,6.71424 L4.52224,6.71424 L3.76512,7.264 L4.0544,6.3744 Z M1.01568,0.352 L1.30496,1.2416 L0.5472,0.69152 L1.4832,0.69152 L0.7264,1.24128 L1.01568,0.352 Z M1.01568,2.07264 L1.30496,2.96224 L0.5472,2.41248 L1.4832,2.41248 L0.7264,2.96224 L1.01568,2.07264 Z M1.01568,3.79328 L1.30496,4.68288 L0.54752,4.13312 L1.48352,4.13312 L0.7264,4.68288 L1.01568,3.79328 Z M1.01568,5.51424 L1.30496,6.40352 L0.54752,5.85376 L1.48352,5.85376 L0.7264,6.40352 L1.01568,5.51424 Z M1.01568,7.23488 L1.30496,8.12448 L0.5472,7.5744 L1.4832,7.5744 L0.7264,8.12416 L1.01568,7.23488 Z M2.02848,1.21248 L2.31776,2.10176 L1.56032,1.552 L2.49632,1.552 L1.7392,2.10176 L2.02848,1.21248 Z M2.02848,2.93312 L2.31776,3.82272 L1.56032,3.27264 L2.49632,3.27264 L1.7392,3.8224 L2.02848,2.93312 Z M2.02848,4.65376 L2.31776,5.54336 L1.56032,4.9936 L2.49632,4.9936 L1.7392,5.54304 L2.02848,4.65376 Z M2.02848,6.3744 L2.31776,7.264 L1.56032,6.71424 L2.49632,6.71424 L1.7392,7.264 L2.02848,6.3744 Z M3.04128,0.352 L3.33056,1.2416 L2.57344,0.69184 L3.50944,0.69184 L2.752,1.24128 L3.04128,0.352 Z M3.04128,2.07264 L3.33056,2.96224 L2.57344,2.41248 L3.50944,2.41248 L2.752,2.96224 L3.04128,2.07264 Z M3.04128,3.79328 L3.33056,4.68288 L2.57344,4.13312 L3.50944,4.13312 L2.752,4.68288 L3.04128,3.79328 Z M3.04128,5.51424 L3.33056,6.40352 L2.57344,5.85376 L3.50944,5.85376 L2.752,6.40352 L3.04128,5.51424 Z M3.04128,7.23488 L3.33056,8.12448 L2.57344,7.57472 L3.50944,7.57472 L2.752,8.12416 L3.04128,7.23488 Z M5.0672,0.352 L5.35648,1.2416 L4.59904,0.69184 L5.53504,0.69184 L4.77792,1.24128 L5.0672,0.352 Z M5.0672,2.07264 L5.35648,2.96224 L4.59904,2.41248 L5.53504,2.41248 L4.77792,2.96224 L5.0672,2.07264 Z M5.0672,3.79328 L5.35648,4.68288 L4.59904,4.13312 L5.53504,4.13312 L4.77792,4.68288 L5.0672,3.79328 Z M5.0672,5.51424 L5.35648,6.40352 L4.59904,5.85376 L5.53504,5.85376 L4.77792,6.40352 L5.0672,5.51424 Z M5.0672,7.23488 L5.35648,8.12448 L4.59904,7.57472 L5.53504,7.57472 L4.77792,8.12416 L5.0672,7.23488 Z M6.08,1.21248 L6.36928,2.10176 L5.61184,1.552 L6.54816,1.552 L5.79072,2.10176 L6.08,1.21248 Z M6.08,2.93312 L6.36928,3.82272 L5.61184,3.27264 L6.54816,3.27264 L5.79072,3.8224 L6.08,2.93312 Z M6.08,4.65376 L6.36928,5.54336 L5.61184,4.9936 L6.54816,4.9936 L5.79072,5.54304 L6.08,4.65376 Z M6.08,6.3744 L6.36928,7.264 L5.61184,6.71424 L6.54816,6.71424 L5.79072,7.264 L6.08,6.3744 Z M7.0928,0.352 L7.38208,1.2416 L6.62496,0.69184 L7.56096,0.69184 L6.8032,1.24128 L7.0928,0.352 Z M7.0928,2.07264 L7.38208,2.96224 L6.62496,2.41248 L7.56096,2.41248 L6.8032,2.96224 L7.0928,2.07264 Z M7.0928,3.79328 L7.38208,4.68288 L6.62496,4.13312 L7.56096,4.13312 L6.80352,4.68288 L7.0928,3.79328 Z M7.0928,5.51424 L7.38208,6.40352 L6.62496,5.85376 L7.56096,5.85376 L6.80352,6.40352 L7.0928,5.51424 Z M7.0928,7.23488 L7.38208,8.12448 L6.62496,7.57472 L7.56096,7.57472 L6.80352,8.12416 L7.0928,7.23488 Z M8.1056,1.21248 L8.39488,2.10176 L7.63776,1.552 L8.57376,1.552 L7.81664,2.10176 L8.1056,1.21248 Z M8.1056,2.93312 L8.39488,3.82272 L7.63776,3.27264 L8.57376,3.27264 L7.81664,3.8224 L8.1056,2.93312 Z M8.1056,4.65376 L8.39488,5.54336 L7.63776,4.9936 L8.57376,4.9936 L7.81664,5.54304 L8.1056,4.65376 Z M8.1056,6.3744 L8.39488,7.264 L7.63776,6.71424 L8.57376,6.71424 L7.81664,7.264 L8.1056,6.3744 Z M9.11872,0.352 L9.408,1.2416 L8.65056,0.69184 L9.58656,0.69184 L8.82944,1.24128 L9.11872,0.352 Z M9.11872,2.07264 L9.408,2.96224 L8.65056,2.41248 L9.58656,2.41248 L8.82944,2.96224 L9.11872,2.07264 Z M9.11872,3.79328 L9.408,4.68288 L8.65056,4.13312 L9.58656,4.13312 L8.82944,4.68288 L9.11872,3.79328 Z M9.11872,5.51424 L9.408,6.4032 L8.65056,5.85344 L9.58656,5.85344 L8.82944,6.4032 L9.11872,5.51424 Z M9.11872,7.23488 L9.408,8.12448 L8.65056,7.57472 L9.58656,7.57472 L8.82944,8.12416 L9.11872,7.23488 Z M10.13152,1.21248 L10.4208,2.10176 L9.66368,1.552 L10.59968,1.552 L9.84224,2.10176 L10.13152,1.21248 Z M10.13152,2.93312 L10.4208,3.82272 L9.66368,3.27264 L10.59968,3.27264 L9.84224,3.8224 L10.13152,2.93312 Z M10.13152,4.65376 L10.4208,5.54336 L9.66368,4.9936 L10.59968,4.9936 L9.84224,5.54304 L10.13152,4.65376 Z M10.13152,6.3744 L10.4208,7.264 L9.66368,6.71424 L10.59968,6.71424 L9.84224,7.264 L10.13152,6.3744 Z M11.14432,0.352 L11.4336,1.2416 L10.67648,0.69184 L11.61248,0.69184 L10.85504,1.24128 L11.14432,0.352 Z M11.14432,2.07264 L11.4336,2.96224 L10.67648,2.41248 L11.61248,2.41248 L10.85504,2.96224 L11.14432,2.07264 Z M11.14432,3.79328 L11.4336,4.68288 L10.67648,4.13312 L11.61248,4.13312 L10.85504,4.68288 L11.14432,3.79328 Z M11.14432,5.51424 L11.4336,6.40352 L10.67648,5.85376 L11.61248,5.85376 L10.85504,6.40352 L11.14432,5.51424 Z M11.14432,7.23488 L11.4336,8.12448 L10.67648,7.57472 L11.61248,7.57472 L10.85504,8.12416 L11.14432,7.23488 Z" id="Shape" fill="#FFFFFF"></path>
        </g>
    </g>
</svg>