<svg width="16" height="16" viewBox="0 0 16 16" fill="none" xmlns="http://www.w3.org/2000/svg">
<path fill-rule="evenodd" clip-rule="evenodd" d="M1.70711 0.292893C1.31658 -0.0976311 0.683417 -0.0976311 0.292893 0.292893C-0.0976311 0.683417 -0.0976311 1.31658 0.292893 1.70711L14.2929 15.7071C14.6834 16.0976 15.3166 16.0976 15.7071 15.7071C16.0976 15.3166 16.0976 14.6834 15.7071 14.2929L14.3199 12.9056C15.3729 11.551 16 9.84871 16 8C16 3.58172 12.4183 1.49012e-08 8 1.49012e-08C6.15129 1.49012e-08 4.44904 0.627082 3.09436 1.68014L1.70711 0.292893ZM4.52347 3.10925L5.96803 4.55382C6.56355 4.20193 7.25819 4 8 4C10.2091 4 12 5.79086 12 8C12 8.74181 11.7981 9.43645 11.4462 10.032L12.8907 11.4765C13.5892 10.4957 14 9.29583 14 8C14 4.68629 11.3137 2 8 2C6.70417 2 5.50428 2.41079 4.52347 3.10925ZM9.93226 8.51804C9.97644 8.35282 10 8.17916 10 8C10 6.89543 9.10457 6 8 6C7.82084 6 7.64718 6.02356 7.48196 6.06774L9.93226 8.51804Z" fill="white"/>
<path d="M8 14C8.76835 14 9.50296 13.8556 10.1782 13.5924L11.6872 15.1015C10.5838 15.6755 9.32981 16 8 16C3.58172 16 1.49012e-08 12.4183 1.49012e-08 8C1.49012e-08 6.67019 0.324464 5.41616 0.898544 4.31276L2.40761 5.82182C2.14442 6.49704 2 7.23165 2 8C2 11.3137 4.68629 14 8 14Z" fill="white"/>
<path d="M8 12C8.18607 12 8.36917 11.9873 8.54849 11.9627L4.03729 7.45151C4.0127 7.63082 4 7.81393 4 8C4 10.2091 5.79086 12 8 12Z" fill="white"/>
</svg>
