<svg width="16" height="16" viewBox="0 0 16 16" xmlns="http://www.w3.org/2000/svg">
    <path d="M10.857 0c.166 0 .329.012.49.037l.24.045.077.019.042.011.043.012-.021-.006.04.012.036.01.022.007.064.021.039.014.067.024.05.02-.042-.016.063.025.063.026.033.015.036.016-.038-.017.066.03.085.043.06.031-.025-.013.024.013.044.024.041.024.033.02.032.02.066.043.039.026.038.027.058.042.004.004.028.021.036.029.061.049.027.024.033.03.057.053.005.005.05.049.014.015.06.063.029.033.05.058.097.126.088.131-.013-.02.032.049.023.04.04.072.013.024.024.048.035.073.06.147.05.15.04.155.022.12.016.123.008.112.003.112-.004.138-.005.068-.008.068-.017.111-.008.047-.02.087-.047.169c-.254.778-.928 1.4-1.793 1.67l-.189.051-.194.04v1.015l.216-.032c1.49-.26 2.681-1.245 3.074-2.517C15.491 3.862 16 4.63 16 5.5 16 6.88 14.72 8 13.143 8 14.72 8 16 9.12 16 10.5c0 1.177-.93 2.164-2.18 2.43l-.173.031.007.035a2.89 2.89 0 0 1-2.245-.86l-.121-.135H10l.098.175c.623 1.03 1.801 1.745 3.171 1.818l.23.006.158-.004c-.263 1.143-1.417 2.004-2.8 2.004-1.457 0-2.66-.954-2.836-2.186l-.016-.156L8 13.5l-.006.158C7.901 14.965 6.66 16 5.143 16c-1.384 0-2.538-.861-2.801-2.004L2.5 14l.23-.006c1.37-.073 2.548-.789 3.17-1.818L6 12H4.711c-.466.56-1.186.937-2.005.992L2.5 13l-.154-.004.007-.035C1.016 12.753 0 11.731 0 10.5 0 9.12 1.28 8 2.857 8 1.28 8 0 6.88 0 5.5c0-.871.51-1.638 1.281-2.085.393 1.272 1.584 2.257 3.074 2.517l.215.032V4.95l-.193-.04c-.956-.233-1.71-.889-1.982-1.722l-.048-.169a2.214 2.214 0 0 1-.034-.174l.007.04-.017-.111a2.21 2.21 0 0 1-.013-.136L2.286 2.5c0-.075.004-.15.011-.224l.016-.122.023-.121.039-.155.05-.15.06-.147.035-.073.024-.048.001-.002h-.001l.001-.001.012-.021.04-.071.023-.041.032-.05-.013.021.088-.131.098-.126.049-.058.03-.033.059-.063.015-.015.049-.049.005-.005.057-.053.033-.03.027-.024.061-.05.036-.028.028-.021.004-.004.058-.042.038-.027.04-.026.065-.043.032-.02.033-.02.041-.024.044-.024.022-.013h.002l.035-.018.01-.006.075-.037.064-.03h.002L3.87.261l.063-.026.063-.025.008-.004.067-.024.039-.014.064-.02.022-.008.037-.01.036-.012-.018.006.085-.023.048-.012.029-.007c.24-.054.48-.082.73-.082C6.599 0 7.8.954 7.978 2.186l.016.156.006.157.006-.157.016-.156C8.2.954 9.401 0 10.857 0zM8 3.5a.5.5 0 0 0-.5.5v8l.008.09A.5.5 0 0 0 8.5 12V4l-.008-.09A.5.5 0 0 0 8 3.5z"/>
</svg>
