<svg width="16" height="16" viewBox="0 0 16 16" xmlns="http://www.w3.org/2000/svg">
    <path d="m13.336 9.007.044.085 2.58 6.193a.516.516 0 0 1-.91.48l-.043-.083-.728-1.747h-2.753l-.727 1.747a.516.516 0 0 1-.586.306l-.089-.028a.516.516 0 0 1-.306-.586l.028-.089 2.58-6.193a.517.517 0 0 1 .91-.085zM4.128 1.728V4.13a5.161 5.161 0 0 0 4.13 9.187v2.095a7.226 7.226 0 0 1-4.13-13.682zm8.775 8.904-.947 2.271h1.893l-.946-2.27zM8.258 0v8.258H6.193V0h2.065zm2.065 1.728a7.233 7.233 0 0 1 4.055 5.498h-2.094a5.162 5.162 0 0 0-1.962-3.097V1.728z"/>
</svg>
