<svg width="16" height="16" viewBox="0 0 16 16" xmlns="http://www.w3.org/2000/svg">
    <path d="M14 0a2 2 0 0 1 2 2v12a2 2 0 0 1-2 2H2a2 2 0 0 1-2-2V2a2 2 0 0 1 2-2h12zM7.047 3C4.26 3 2 5.239 2 8s2.26 5 5.047 5c2.454 0 4.499-1.734 4.952-4.033-.133.022-.27.033-.409.033-1.394 0-2.524-1.12-2.524-2.5 0-.195.023-.384.066-.564A1.494 1.494 0 0 1 8.7 3.274 5.084 5.084 0 0 0 7.047 3zm1.01 6c.557 0 1.01.448 1.01 1s-.453 1-1.01 1c-.558 0-1.01-.448-1.01-1s.452-1 1.01-1zM4.019 8c.558 0 1.01.448 1.01 1s-.452 1-1.01 1-1.01-.448-1.01-1 .452-1 1.01-1zm2.019-3c.557 0 1.01.448 1.01 1s-.453 1-1.01 1c-.558 0-1.01-.448-1.01-1s.452-1 1.01-1zM11.5 5a.5.5 0 1 0 0-1 .5.5 0 0 0 0 1zM13 8a1 1 0 1 0 0-2 1 1 0 0 0 0 2z"/>
</svg>
