<svg width="16" height="16" viewBox="0 0 16 16" xmlns="http://www.w3.org/2000/svg">
    <path d="m1.613.21.094.083 2.107 2.106A7.025 7.025 0 0 1 8.034 1c.806 0 1.58.135 2.301.383A2.094 2.094 0 0 0 9.441 3.1c0 .994.693 1.826 1.625 2.044A3.508 3.508 0 0 0 15 8.974a6.945 6.945 0 0 1-1.359 3.252l2.066 2.067a1 1 0 0 1-1.32 1.497l-.094-.083-14-14A1 1 0 0 1 1.613.21zm.28 4.375 9.572 9.527A7.028 7.028 0 0 1 8.034 15C4.149 15 1 11.866 1 8c0-1.24.324-2.405.892-3.415zM4.013 9c-.554 0-1.004.448-1.004 1s.45 1 1.004 1c.555 0 1.005-.448 1.005-1s-.45-1-1.005-1zM14.5 6a.5.5 0 1 1 0 1 .5.5 0 0 1 0-1zM7.029 4c-.438 0-.81.278-.948.667L7.36 5.944A1 1 0 0 0 8.034 5c0-.552-.45-1-1.005-1zM13 2a1 1 0 1 1 0 2 1 1 0 0 1 0-2z"/>
</svg>
