<svg width="16" height="16" viewBox="0 0 16 16" xmlns="http://www.w3.org/2000/svg">
    <path d="M16 8a8 8 0 0 1-8 8v-1a7 7 0 0 0 7-7h1zm-4.667 3.536.667.707C10.976 13.33 9.562 14 8 14c-1.562 0-2.976-.671-4-1.757l.667-.707C5.52 12.441 6.698 13 8 13s2.48-.56 3.333-1.464zm.09-5.805.041.083 2 5a.5.5 0 0 1-.887.452l-.041-.08L12.06 10H9.938l-.474 1.186a.5.5 0 0 1-.563.304l-.087-.026a.5.5 0 0 1-.304-.563l.026-.087 2-5a.5.5 0 0 1 .886-.083zM6.5 3.5a.5.5 0 0 1 .492.41L7 4v2l.496.002.008-.064a.5.5 0 0 1 .468-.437l.09.003A.5.5 0 0 1 8.5 6H9a.5.5 0 0 1 .09.992L9 7l-.673.002c-.244 1.002-.66 1.796-1.245 2.373l1.272 1.271a.5.5 0 0 1-.638.765l-.07-.057-1.375-1.376c-.632.346-1.39.522-2.271.522a.5.5 0 0 1 0-1c.58 0 1.086-.09 1.521-.271l-.875-.875a.5.5 0 0 1 .638-.765l.07.057 1.02 1.022c.415-.403.72-.956.92-1.666L4 7a.5.5 0 0 1-.09-.992L4 6h2V4a.5.5 0 0 1 .5-.5zM11 7.346 10.338 9h1.323L11 7.346zM8 0v1a7 7 0 0 0-7 7H0a8 8 0 0 1 8-8zm0 2c1.562 0 2.977.672 4 1.758l-.666.707C10.48 3.56 9.302 3 8 3s-2.48.56-3.334 1.465L4 3.758C5.023 2.672 6.438 2 8 2z" />
</svg>
