<svg width="16" height="16" viewBox="0 0 16 16" xmlns="http://www.w3.org/2000/svg">
    <path d="M16 8a8 8 0 0 1-8 8v-1a7 7 0 0 0 7-7h1zM8 2c1.562 0 2.977.672 4 1.758l-.666.707a4.851 4.851 0 0 0-.367-.35L9.5 9l-4.405 2.938A4.526 4.526 0 0 0 8 13c1.302 0 2.48-.56 3.333-1.464l.667.707C10.976 13.33 9.562 14 8 14c-1.562 0-2.976-.671-4-1.757l.667-.707c.117.123.239.24.367.35L6.5 7l4.407-2.937A4.527 4.527 0 0 0 8 3c-1.302 0-2.48.56-3.334 1.465L4 3.758C5.023 2.672 6.438 2 8 2zm0-2v1a7 7 0 0 0-7 7H0a8 8 0 0 1 8-8z" />
</svg>
