<svg width="16" height="16" viewBox="0 0 16 16" xmlns="http://www.w3.org/2000/svg">
    <path d="M16 8a8 8 0 0 1-8 8v-1a7 7 0 0 0 7-7h1zm-4.667 3.536.667.707C10.976 13.33 9.562 14 8 14c-1.562 0-2.976-.671-4-1.757l.667-.707C5.52 12.441 6.698 13 8 13s2.48-.56 3.333-1.464zM7 4.5a.5.5 0 0 1 .492.41L7.5 5v3.5H10a.5.5 0 0 1 .492.41L10.5 9a.5.5 0 0 1-.41.492L10 9.5H6.5V5a.5.5 0 0 1 .5-.5zM8 0v1a7 7 0 0 0-7 7H0a8 8 0 0 1 8-8zm0 2c1.562 0 2.977.672 4 1.758l-.666.707C10.48 3.56 9.302 3 8 3s-2.48.56-3.334 1.465L4 3.758C5.023 2.672 6.438 2 8 2z"/>
</svg>
